<svg viewBox="0 0 1440 600" xmlns="http://www.w3.org/2000/svg" preserveAspectRatio="xMidYMid slice" style="width:100%; height:100%;">
    <defs>
        <style>
            .dot {
                opacity: 0;
                animation: appear 1s forwards;
            }
            .line {
                stroke-width: 0.8;
                stroke-dasharray: 150;
                stroke-dashoffset: 150;
                animation: draw 2s forwards;
                opacity: 0.4;
            }
            @keyframes appear {
                to { opacity: 1; }
            }
            @keyframes draw {
                to { stroke-dashoffset: 0; }
            }
            .center-eye {
                stroke: white;
                stroke-width: 1;
                fill: none;
                opacity: 0.6;
            }
        </style>
    </defs>
    <rect width="100%" height="100%" fill="#0F0F1A" />
    <g id="chakra-awakening">
        <circle class="dot" cx="756.00" cy="300.00" r="1.6" fill="#FF0000" style="animation-delay: 0.00s" />
        <circle class="dot" cx="754.77" cy="309.32" r="1.6" fill="#FF0000" style="animation-delay: 0.20s" />
        <circle class="dot" cx="751.18" cy="318.00" r="1.6" fill="#FF0000" style="animation-delay: 0.40s" />
        <circle class="dot" cx="745.46" cy="325.46" r="1.6" fill="#FF0000" style="animation-delay: 0.60s" />
        <circle class="dot" cx="738.00" cy="331.18" r="1.6" fill="#FF0000" style="animation-delay: 0.80s" />
        <circle class="dot" cx="729.32" cy="334.77" r="1.6" fill="#FF0000" style="animation-delay: 1.00s" />
        <circle class="dot" cx="720.00" cy="336.00" r="1.6" fill="#FF0000" style="animation-delay: 1.20s" />
        <circle class="dot" cx="710.68" cy="334.77" r="1.6" fill="#FF0000" style="animation-delay: 1.40s" />
        <circle class="dot" cx="702.00" cy="331.18" r="1.6" fill="#FF0000" style="animation-delay: 1.60s" />
        <circle class="dot" cx="694.54" cy="325.46" r="1.6" fill="#FF0000" style="animation-delay: 1.80s" />
        <circle class="dot" cx="688.82" cy="318.00" r="1.6" fill="#FF0000" style="animation-delay: 2.00s" />
        <circle class="dot" cx="685.23" cy="309.32" r="1.6" fill="#FF0000" style="animation-delay: 2.20s" />
        <circle class="dot" cx="684.00" cy="300.00" r="1.6" fill="#FF0000" style="animation-delay: 2.40s" />
        <circle class="dot" cx="685.23" cy="290.68" r="1.6" fill="#FF0000" style="animation-delay: 2.60s" />
        <circle class="dot" cx="688.82" cy="282.00" r="1.6" fill="#FF0000" style="animation-delay: 2.80s" />
        <circle class="dot" cx="694.54" cy="274.54" r="1.6" fill="#FF0000" style="animation-delay: 3.00s" />
        <circle class="dot" cx="702.00" cy="268.82" r="1.6" fill="#FF0000" style="animation-delay: 3.20s" />
        <circle class="dot" cx="710.68" cy="265.23" r="1.6" fill="#FF0000" style="animation-delay: 3.40s" />
        <circle class="dot" cx="720.00" cy="264.00" r="1.6" fill="#FF0000" style="animation-delay: 3.60s" />
        <circle class="dot" cx="729.32" cy="265.23" r="1.6" fill="#FF0000" style="animation-delay: 3.80s" />
        <circle class="dot" cx="738.00" cy="268.82" r="1.6" fill="#FF0000" style="animation-delay: 4.00s" />
        <circle class="dot" cx="745.46" cy="274.54" r="1.6" fill="#FF0000" style="animation-delay: 4.20s" />
        <circle class="dot" cx="751.18" cy="282.00" r="1.6" fill="#FF0000" style="animation-delay: 4.40s" />
        <circle class="dot" cx="754.77" cy="290.68" r="1.6" fill="#FF0000" style="animation-delay: 4.60s" />
        <line class="line" x1="756.00" y1="300.00" x2="754.77" y2="309.32" stroke="#FF0000" style="animation-delay: 4.80s" />
        <line class="line" x1="754.77" y1="309.32" x2="751.18" y2="318.00" stroke="#FF0000" style="animation-delay: 4.90s" />
        <line class="line" x1="751.18" y1="318.00" x2="745.46" y2="325.46" stroke="#FF0000" style="animation-delay: 5.00s" />
        <line class="line" x1="745.46" y1="325.46" x2="738.00" y2="331.18" stroke="#FF0000" style="animation-delay: 5.10s" />
        <line class="line" x1="738.00" y1="331.18" x2="729.32" y2="334.77" stroke="#FF0000" style="animation-delay: 5.20s" />
        <line class="line" x1="729.32" y1="334.77" x2="720.00" y2="336.00" stroke="#FF0000" style="animation-delay: 5.30s" />
        <line class="line" x1="720.00" y1="336.00" x2="710.68" y2="334.77" stroke="#FF0000" style="animation-delay: 5.40s" />
        <line class="line" x1="710.68" y1="334.77" x2="702.00" y2="331.18" stroke="#FF0000" style="animation-delay: 5.50s" />
        <line class="line" x1="702.00" y1="331.18" x2="694.54" y2="325.46" stroke="#FF0000" style="animation-delay: 5.60s" />
        <line class="line" x1="694.54" y1="325.46" x2="688.82" y2="318.00" stroke="#FF0000" style="animation-delay: 5.70s" />
        <line class="line" x1="688.82" y1="318.00" x2="685.23" y2="309.32" stroke="#FF0000" style="animation-delay: 5.80s" />
        <line class="line" x1="685.23" y1="309.32" x2="684.00" y2="300.00" stroke="#FF0000" style="animation-delay: 5.90s" />
        <line class="line" x1="684.00" y1="300.00" x2="685.23" y2="290.68" stroke="#FF0000" style="animation-delay: 6.00s" />
        <line class="line" x1="685.23" y1="290.68" x2="688.82" y2="282.00" stroke="#FF0000" style="animation-delay: 6.10s" />
        <line class="line" x1="688.82" y1="282.00" x2="694.54" y2="274.54" stroke="#FF0000" style="animation-delay: 6.20s" />
        <line class="line" x1="694.54" y1="274.54" x2="702.00" y2="268.82" stroke="#FF0000" style="animation-delay: 6.30s" />
        <line class="line" x1="702.00" y1="268.82" x2="710.68" y2="265.23" stroke="#FF0000" style="animation-delay: 6.40s" />
        <line class="line" x1="710.68" y1="265.23" x2="720.00" y2="264.00" stroke="#FF0000" style="animation-delay: 6.50s" />
        <line class="line" x1="720.00" y1="264.00" x2="729.32" y2="265.23" stroke="#FF0000" style="animation-delay: 6.60s" />
        <line class="line" x1="729.32" y1="265.23" x2="738.00" y2="268.82" stroke="#FF0000" style="animation-delay: 6.70s" />
        <line class="line" x1="738.00" y1="268.82" x2="745.46" y2="274.54" stroke="#FF0000" style="animation-delay: 6.80s" />
        <line class="line" x1="745.46" y1="274.54" x2="751.18" y2="282.00" stroke="#FF0000" style="animation-delay: 6.90s" />
        <line class="line" x1="751.18" y1="282.00" x2="754.77" y2="290.68" stroke="#FF0000" style="animation-delay: 7.00s" />
        <line class="line" x1="754.77" y1="290.68" x2="756.00" y2="300.00" stroke="#FF0000" style="animation-delay: 7.10s" />
        <circle class="dot" cx="792.00" cy="300.00" r="1.6" fill="#FF7F00" style="animation-delay: 4.80s" />
        <circle class="dot" cx="789.55" cy="318.63" r="1.6" fill="#FF7F00" style="animation-delay: 5.00s" />
        <circle class="dot" cx="782.35" cy="336.00" r="1.6" fill="#FF7F00" style="animation-delay: 5.20s" />
        <circle class="dot" cx="770.91" cy="350.91" r="1.6" fill="#FF7F00" style="animation-delay: 5.40s" />
        <circle class="dot" cx="756.00" cy="362.35" r="1.6" fill="#FF7F00" style="animation-delay: 5.60s" />
        <circle class="dot" cx="738.63" cy="369.55" r="1.6" fill="#FF7F00" style="animation-delay: 5.80s" />
        <circle class="dot" cx="720.00" cy="372.00" r="1.6" fill="#FF7F00" style="animation-delay: 6.00s" />
        <circle class="dot" cx="701.37" cy="369.55" r="1.6" fill="#FF7F00" style="animation-delay: 6.20s" />
        <circle class="dot" cx="684.00" cy="362.35" r="1.6" fill="#FF7F00" style="animation-delay: 6.40s" />
        <circle class="dot" cx="669.09" cy="350.91" r="1.6" fill="#FF7F00" style="animation-delay: 6.60s" />
        <circle class="dot" cx="657.65" cy="336.00" r="1.6" fill="#FF7F00" style="animation-delay: 6.80s" />
        <circle class="dot" cx="650.45" cy="318.63" r="1.6" fill="#FF7F00" style="animation-delay: 7.00s" />
        <circle class="dot" cx="648.00" cy="300.00" r="1.6" fill="#FF7F00" style="animation-delay: 7.20s" />
        <circle class="dot" cx="650.45" cy="281.37" r="1.6" fill="#FF7F00" style="animation-delay: 7.40s" />
        <circle class="dot" cx="657.65" cy="264.00" r="1.6" fill="#FF7F00" style="animation-delay: 7.60s" />
        <circle class="dot" cx="669.09" cy="249.09" r="1.6" fill="#FF7F00" style="animation-delay: 7.80s" />
        <circle class="dot" cx="684.00" cy="237.65" r="1.6" fill="#FF7F00" style="animation-delay: 8.00s" />
        <circle class="dot" cx="701.37" cy="230.45" r="1.6" fill="#FF7F00" style="animation-delay: 8.20s" />
        <circle class="dot" cx="720.00" cy="228.00" r="1.6" fill="#FF7F00" style="animation-delay: 8.40s" />
        <circle class="dot" cx="738.63" cy="230.45" r="1.6" fill="#FF7F00" style="animation-delay: 8.60s" />
        <circle class="dot" cx="756.00" cy="237.65" r="1.6" fill="#FF7F00" style="animation-delay: 8.80s" />
        <circle class="dot" cx="770.91" cy="249.09" r="1.6" fill="#FF7F00" style="animation-delay: 9.00s" />
        <circle class="dot" cx="782.35" cy="264.00" r="1.6" fill="#FF7F00" style="animation-delay: 9.20s" />
        <circle class="dot" cx="789.55" cy="281.37" r="1.6" fill="#FF7F00" style="animation-delay: 9.40s" />
        <line class="line" x1="792.00" y1="300.00" x2="789.55" y2="318.63" stroke="#FF7F00" style="animation-delay: 7.20s" />
        <line class="line" x1="789.55" y1="318.63" x2="782.35" y2="336.00" stroke="#FF7F00" style="animation-delay: 7.30s" />
        <line class="line" x1="782.35" y1="336.00" x2="770.91" y2="350.91" stroke="#FF7F00" style="animation-delay: 7.40s" />
        <line class="line" x1="770.91" y1="350.91" x2="756.00" y2="362.35" stroke="#FF7F00" style="animation-delay: 7.50s" />
        <line class="line" x1="756.00" y1="362.35" x2="738.63" y2="369.55" stroke="#FF7F00" style="animation-delay: 7.60s" />
        <line class="line" x1="738.63" y1="369.55" x2="720.00" y2="372.00" stroke="#FF7F00" style="animation-delay: 7.70s" />
        <line class="line" x1="720.00" y1="372.00" x2="701.37" y2="369.55" stroke="#FF7F00" style="animation-delay: 7.80s" />
        <line class="line" x1="701.37" y1="369.55" x2="684.00" y2="362.35" stroke="#FF7F00" style="animation-delay: 7.90s" />
        <line class="line" x1="684.00" y1="362.35" x2="669.09" y2="350.91" stroke="#FF7F00" style="animation-delay: 8.00s" />
        <line class="line" x1="669.09" y1="350.91" x2="657.65" y2="336.00" stroke="#FF7F00" style="animation-delay: 8.10s" />
        <line class="line" x1="657.65" y1="336.00" x2="650.45" y2="318.63" stroke="#FF7F00" style="animation-delay: 8.20s" />
        <line class="line" x1="650.45" y1="318.63" x2="648.00" y2="300.00" stroke="#FF7F00" style="animation-delay: 8.30s" />
        <line class="line" x1="648.00" y1="300.00" x2="650.45" y2="281.37" stroke="#FF7F00" style="animation-delay: 8.40s" />
        <line class="line" x1="650.45" y1="281.37" x2="657.65" y2="264.00" stroke="#FF7F00" style="animation-delay: 8.50s" />
        <line class="line" x1="657.65" y1="264.00" x2="669.09" y2="249.09" stroke="#FF7F00" style="animation-delay: 8.60s" />
        <line class="line" x1="669.09" y1="249.09" x2="684.00" y2="237.65" stroke="#FF7F00" style="animation-delay: 8.70s" />
        <line class="line" x1="684.00" y1="237.65" x2="701.37" y2="230.45" stroke="#FF7F00" style="animation-delay: 8.80s" />
        <line class="line" x1="701.37" y1="230.45" x2="720.00" y2="228.00" stroke="#FF7F00" style="animation-delay: 8.90s" />
        <line class="line" x1="720.00" y1="228.00" x2="738.63" y2="230.45" stroke="#FF7F00" style="animation-delay: 9.00s" />
        <line class="line" x1="738.63" y1="230.45" x2="756.00" y2="237.65" stroke="#FF7F00" style="animation-delay: 9.10s" />
        <line class="line" x1="756.00" y1="237.65" x2="770.91" y2="249.09" stroke="#FF7F00" style="animation-delay: 9.20s" />
        <line class="line" x1="770.91" y1="249.09" x2="782.35" y2="264.00" stroke="#FF7F00" style="animation-delay: 9.30s" />
        <line class="line" x1="782.35" y1="264.00" x2="789.55" y2="281.37" stroke="#FF7F00" style="animation-delay: 9.40s" />
        <line class="line" x1="789.55" y1="281.37" x2="792.00" y2="300.00" stroke="#FF7F00" style="animation-delay: 9.50s" />
        <circle class="dot" cx="828.00" cy="300.00" r="1.6" fill="#FFFF00" style="animation-delay: 9.60s" />
        <circle class="dot" cx="824.32" cy="327.95" r="1.6" fill="#FFFF00" style="animation-delay: 9.80s" />
        <circle class="dot" cx="813.53" cy="354.00" r="1.6" fill="#FFFF00" style="animation-delay: 10.00s" />
        <circle class="dot" cx="796.37" cy="376.37" r="1.6" fill="#FFFF00" style="animation-delay: 10.20s" />
        <circle class="dot" cx="774.00" cy="393.53" r="1.6" fill="#FFFF00" style="animation-delay: 10.40s" />
        <circle class="dot" cx="747.95" cy="404.32" r="1.6" fill="#FFFF00" style="animation-delay: 10.60s" />
        <circle class="dot" cx="720.00" cy="408.00" r="1.6" fill="#FFFF00" style="animation-delay: 10.80s" />
        <circle class="dot" cx="692.05" cy="404.32" r="1.6" fill="#FFFF00" style="animation-delay: 11.00s" />
        <circle class="dot" cx="666.00" cy="393.53" r="1.6" fill="#FFFF00" style="animation-delay: 11.20s" />
        <circle class="dot" cx="643.63" cy="376.37" r="1.6" fill="#FFFF00" style="animation-delay: 11.40s" />
        <circle class="dot" cx="626.47" cy="354.00" r="1.6" fill="#FFFF00" style="animation-delay: 11.60s" />
        <circle class="dot" cx="615.68" cy="327.95" r="1.6" fill="#FFFF00" style="animation-delay: 11.80s" />
        <circle class="dot" cx="612.00" cy="300.00" r="1.6" fill="#FFFF00" style="animation-delay: 12.00s" />
        <circle class="dot" cx="615.68" cy="272.05" r="1.6" fill="#FFFF00" style="animation-delay: 12.20s" />
        <circle class="dot" cx="626.47" cy="246.00" r="1.6" fill="#FFFF00" style="animation-delay: 12.40s" />
        <circle class="dot" cx="643.63" cy="223.63" r="1.6" fill="#FFFF00" style="animation-delay: 12.60s" />
        <circle class="dot" cx="666.00" cy="206.47" r="1.6" fill="#FFFF00" style="animation-delay: 12.80s" />
        <circle class="dot" cx="692.05" cy="195.68" r="1.6" fill="#FFFF00" style="animation-delay: 13.00s" />
        <circle class="dot" cx="720.00" cy="192.00" r="1.6" fill="#FFFF00" style="animation-delay: 13.20s" />
        <circle class="dot" cx="747.95" cy="195.68" r="1.6" fill="#FFFF00" style="animation-delay: 13.40s" />
        <circle class="dot" cx="774.00" cy="206.47" r="1.6" fill="#FFFF00" style="animation-delay: 13.60s" />
        <circle class="dot" cx="796.37" cy="223.63" r="1.6" fill="#FFFF00" style="animation-delay: 13.80s" />
        <circle class="dot" cx="813.53" cy="246.00" r="1.6" fill="#FFFF00" style="animation-delay: 14.00s" />
        <circle class="dot" cx="824.32" cy="272.05" r="1.6" fill="#FFFF00" style="animation-delay: 14.20s" />
        <line class="line" x1="828.00" y1="300.00" x2="824.32" y2="327.95" stroke="#FFFF00" style="animation-delay: 9.60s" />
        <line class="line" x1="824.32" y1="327.95" x2="813.53" y2="354.00" stroke="#FFFF00" style="animation-delay: 9.70s" />
        <line class="line" x1="813.53" y1="354.00" x2="796.37" y2="376.37" stroke="#FFFF00" style="animation-delay: 9.80s" />
        <line class="line" x1="796.37" y1="376.37" x2="774.00" y2="393.53" stroke="#FFFF00" style="animation-delay: 9.90s" />
        <line class="line" x1="774.00" y1="393.53" x2="747.95" y2="404.32" stroke="#FFFF00" style="animation-delay: 10.00s" />
        <line class="line" x1="747.95" y1="404.32" x2="720.00" y2="408.00" stroke="#FFFF00" style="animation-delay: 10.10s" />
        <line class="line" x1="720.00" y1="408.00" x2="692.05" y2="404.32" stroke="#FFFF00" style="animation-delay: 10.20s" />
        <line class="line" x1="692.05" y1="404.32" x2="666.00" y2="393.53" stroke="#FFFF00" style="animation-delay: 10.30s" />
        <line class="line" x1="666.00" y1="393.53" x2="643.63" y2="376.37" stroke="#FFFF00" style="animation-delay: 10.40s" />
        <line class="line" x1="643.63" y1="376.37" x2="626.47" y2="354.00" stroke="#FFFF00" style="animation-delay: 10.50s" />
        <line class="line" x1="626.47" y1="354.00" x2="615.68" y2="327.95" stroke="#FFFF00" style="animation-delay: 10.60s" />
        <line class="line" x1="615.68" y1="327.95" x2="612.00" y2="300.00" stroke="#FFFF00" style="animation-delay: 10.70s" />
        <line class="line" x1="612.00" y1="300.00" x2="615.68" y2="272.05" stroke="#FFFF00" style="animation-delay: 10.80s" />
        <line class="line" x1="615.68" y1="272.05" x2="626.47" y2="246.00" stroke="#FFFF00" style="animation-delay: 10.90s" />
        <line class="line" x1="626.47" y1="246.00" x2="643.63" y2="223.63" stroke="#FFFF00" style="animation-delay: 11.00s" />
        <line class="line" x1="643.63" y1="223.63" x2="666.00" y2="206.47" stroke="#FFFF00" style="animation-delay: 11.10s" />
        <line class="line" x1="666.00" y1="206.47" x2="692.05" y2="195.68" stroke="#FFFF00" style="animation-delay: 11.20s" />
        <line class="line" x1="692.05" y1="195.68" x2="720.00" y2="192.00" stroke="#FFFF00" style="animation-delay: 11.30s" />
        <line class="line" x1="720.00" y1="192.00" x2="747.95" y2="195.68" stroke="#FFFF00" style="animation-delay: 11.40s" />
        <line class="line" x1="747.95" y1="195.68" x2="774.00" y2="206.47" stroke="#FFFF00" style="animation-delay: 11.50s" />
        <line class="line" x1="774.00" y1="206.47" x2="796.37" y2="223.63" stroke="#FFFF00" style="animation-delay: 11.60s" />
        <line class="line" x1="796.37" y1="223.63" x2="813.53" y2="246.00" stroke="#FFFF00" style="animation-delay: 11.70s" />
        <line class="line" x1="813.53" y1="246.00" x2="824.32" y2="272.05" stroke="#FFFF00" style="animation-delay: 11.80s" />
        <line class="line" x1="824.32" y1="272.05" x2="828.00" y2="300.00" stroke="#FFFF00" style="animation-delay: 11.90s" />
        <circle class="dot" cx="864.00" cy="300.00" r="1.6" fill="#00FF00" style="animation-delay: 14.40s" />
        <circle class="dot" cx="859.09" cy="337.27" r="1.6" fill="#00FF00" style="animation-delay: 14.60s" />
        <circle class="dot" cx="844.71" cy="372.00" r="1.6" fill="#00FF00" style="animation-delay: 14.80s" />
        <circle class="dot" cx="821.82" cy="401.82" r="1.6" fill="#00FF00" style="animation-delay: 15.00s" />
        <circle class="dot" cx="792.00" cy="424.71" r="1.6" fill="#00FF00" style="animation-delay: 15.20s" />
        <circle class="dot" cx="757.27" cy="439.09" r="1.6" fill="#00FF00" style="animation-delay: 15.40s" />
        <circle class="dot" cx="720.00" cy="444.00" r="1.6" fill="#00FF00" style="animation-delay: 15.60s" />
        <circle class="dot" cx="682.73" cy="439.09" r="1.6" fill="#00FF00" style="animation-delay: 15.80s" />
        <circle class="dot" cx="648.00" cy="424.71" r="1.6" fill="#00FF00" style="animation-delay: 16.00s" />
        <circle class="dot" cx="618.18" cy="401.82" r="1.6" fill="#00FF00" style="animation-delay: 16.20s" />
        <circle class="dot" cx="595.29" cy="372.00" r="1.6" fill="#00FF00" style="animation-delay: 16.40s" />
        <circle class="dot" cx="580.91" cy="337.27" r="1.6" fill="#00FF00" style="animation-delay: 16.60s" />
        <circle class="dot" cx="576.00" cy="300.00" r="1.6" fill="#00FF00" style="animation-delay: 16.80s" />
        <circle class="dot" cx="580.91" cy="262.73" r="1.6" fill="#00FF00" style="animation-delay: 17.00s" />
        <circle class="dot" cx="595.29" cy="228.00" r="1.6" fill="#00FF00" style="animation-delay: 17.20s" />
        <circle class="dot" cx="618.18" cy="198.18" r="1.6" fill="#00FF00" style="animation-delay: 17.40s" />
        <circle class="dot" cx="648.00" cy="175.29" r="1.6" fill="#00FF00" style="animation-delay: 17.60s" />
        <circle class="dot" cx="682.73" cy="160.91" r="1.6" fill="#00FF00" style="animation-delay: 17.80s" />
        <circle class="dot" cx="720.00" cy="156.00" r="1.6" fill="#00FF00" style="animation-delay: 18.00s" />
        <circle class="dot" cx="757.27" cy="160.91" r="1.6" fill="#00FF00" style="animation-delay: 18.20s" />
        <circle class="dot" cx="792.00" cy="175.29" r="1.6" fill="#00FF00" style="animation-delay: 18.40s" />
        <circle class="dot" cx="821.82" cy="198.18" r="1.6" fill="#00FF00" style="animation-delay: 18.60s" />
        <circle class="dot" cx="844.71" cy="228.00" r="1.6" fill="#00FF00" style="animation-delay: 18.80s" />
        <circle class="dot" cx="859.09" cy="262.73" r="1.6" fill="#00FF00" style="animation-delay: 19.00s" />
        <line class="line" x1="864.00" y1="300.00" x2="859.09" y2="337.27" stroke="#00FF00" style="animation-delay: 12.00s" />
        <line class="line" x1="859.09" y1="337.27" x2="844.71" y2="372.00" stroke="#00FF00" style="animation-delay: 12.10s" />
        <line class="line" x1="844.71" y1="372.00" x2="821.82" y2="401.82" stroke="#00FF00" style="animation-delay: 12.20s" />
        <line class="line" x1="821.82" y1="401.82" x2="792.00" y2="424.71" stroke="#00FF00" style="animation-delay: 12.30s" />
        <line class="line" x1="792.00" y1="424.71" x2="757.27" y2="439.09" stroke="#00FF00" style="animation-delay: 12.40s" />
        <line class="line" x1="757.27" y1="439.09" x2="720.00" y2="444.00" stroke="#00FF00" style="animation-delay: 12.50s" />
        <line class="line" x1="720.00" y1="444.00" x2="682.73" y2="439.09" stroke="#00FF00" style="animation-delay: 12.60s" />
        <line class="line" x1="682.73" y1="439.09" x2="648.00" y2="424.71" stroke="#00FF00" style="animation-delay: 12.70s" />
        <line class="line" x1="648.00" y1="424.71" x2="618.18" y2="401.82" stroke="#00FF00" style="animation-delay: 12.80s" />
        <line class="line" x1="618.18" y1="401.82" x2="595.29" y2="372.00" stroke="#00FF00" style="animation-delay: 12.90s" />
        <line class="line" x1="595.29" y1="372.00" x2="580.91" y2="337.27" stroke="#00FF00" style="animation-delay: 13.00s" />
        <line class="line" x1="580.91" y1="337.27" x2="576.00" y2="300.00" stroke="#00FF00" style="animation-delay: 13.10s" />
        <line class="line" x1="576.00" y1="300.00" x2="580.91" y2="262.73" stroke="#00FF00" style="animation-delay: 13.20s" />
        <line class="line" x1="580.91" y1="262.73" x2="595.29" y2="228.00" stroke="#00FF00" style="animation-delay: 13.30s" />
        <line class="line" x1="595.29" y1="228.00" x2="618.18" y2="198.18" stroke="#00FF00" style="animation-delay: 13.40s" />
        <line class="line" x1="618.18" y1="198.18" x2="648.00" y2="175.29" stroke="#00FF00" style="animation-delay: 13.50s" />
        <line class="line" x1="648.00" y1="175.29" x2="682.73" y2="160.91" stroke="#00FF00" style="animation-delay: 13.60s" />
        <line class="line" x1="682.73" y1="160.91" x2="720.00" y2="156.00" stroke="#00FF00" style="animation-delay: 13.70s" />
        <line class="line" x1="720.00" y1="156.00" x2="757.27" y2="160.91" stroke="#00FF00" style="animation-delay: 13.80s" />
        <line class="line" x1="757.27" y1="160.91" x2="792.00" y2="175.29" stroke="#00FF00" style="animation-delay: 13.90s" />
        <line class="line" x1="792.00" y1="175.29" x2="821.82" y2="198.18" stroke="#00FF00" style="animation-delay: 14.00s" />
        <line class="line" x1="821.82" y1="198.18" x2="844.71" y2="228.00" stroke="#00FF00" style="animation-delay: 14.10s" />
        <line class="line" x1="844.71" y1="228.00" x2="859.09" y2="262.73" stroke="#00FF00" style="animation-delay: 14.20s" />
        <line class="line" x1="859.09" y1="262.73" x2="864.00" y2="300.00" stroke="#00FF00" style="animation-delay: 14.30s" />
        <circle class="dot" cx="900.00" cy="300.00" r="1.6" fill="#0000FF" style="animation-delay: 19.20s" />
        <circle class="dot" cx="893.87" cy="346.59" r="1.6" fill="#0000FF" style="animation-delay: 19.40s" />
        <circle class="dot" cx="875.88" cy="390.00" r="1.6" fill="#0000FF" style="animation-delay: 19.60s" />
        <circle class="dot" cx="847.28" cy="427.28" r="1.6" fill="#0000FF" style="animation-delay: 19.80s" />
        <circle class="dot" cx="810.00" cy="455.88" r="1.6" fill="#0000FF" style="animation-delay: 20.00s" />
        <circle class="dot" cx="766.59" cy="473.87" r="1.6" fill="#0000FF" style="animation-delay: 20.20s" />
        <circle class="dot" cx="720.00" cy="480.00" r="1.6" fill="#0000FF" style="animation-delay: 20.40s" />
        <circle class="dot" cx="673.41" cy="473.87" r="1.6" fill="#0000FF" style="animation-delay: 20.60s" />
        <circle class="dot" cx="630.00" cy="455.88" r="1.6" fill="#0000FF" style="animation-delay: 20.80s" />
        <circle class="dot" cx="592.72" cy="427.28" r="1.6" fill="#0000FF" style="animation-delay: 21.00s" />
        <circle class="dot" cx="564.12" cy="390.00" r="1.6" fill="#0000FF" style="animation-delay: 21.20s" />
        <circle class="dot" cx="546.13" cy="346.59" r="1.6" fill="#0000FF" style="animation-delay: 21.40s" />
        <circle class="dot" cx="540.00" cy="300.00" r="1.6" fill="#0000FF" style="animation-delay: 21.60s" />
        <circle class="dot" cx="546.13" cy="253.41" r="1.6" fill="#0000FF" style="animation-delay: 21.80s" />
        <circle class="dot" cx="564.12" cy="210.00" r="1.6" fill="#0000FF" style="animation-delay: 22.00s" />
        <circle class="dot" cx="592.72" cy="172.72" r="1.6" fill="#0000FF" style="animation-delay: 22.20s" />
        <circle class="dot" cx="630.00" cy="144.12" r="1.6" fill="#0000FF" style="animation-delay: 22.40s" />
        <circle class="dot" cx="673.41" cy="126.13" r="1.6" fill="#0000FF" style="animation-delay: 22.60s" />
        <circle class="dot" cx="720.00" cy="120.00" r="1.6" fill="#0000FF" style="animation-delay: 22.80s" />
        <circle class="dot" cx="766.59" cy="126.13" r="1.6" fill="#0000FF" style="animation-delay: 23.00s" />
        <circle class="dot" cx="810.00" cy="144.12" r="1.6" fill="#0000FF" style="animation-delay: 23.20s" />
        <circle class="dot" cx="847.28" cy="172.72" r="1.6" fill="#0000FF" style="animation-delay: 23.40s" />
        <circle class="dot" cx="875.88" cy="210.00" r="1.6" fill="#0000FF" style="animation-delay: 23.60s" />
        <circle class="dot" cx="893.87" cy="253.41" r="1.6" fill="#0000FF" style="animation-delay: 23.80s" />
        <line class="line" x1="900.00" y1="300.00" x2="893.87" y2="346.59" stroke="#0000FF" style="animation-delay: 14.40s" />
        <line class="line" x1="893.87" y1="346.59" x2="875.88" y2="390.00" stroke="#0000FF" style="animation-delay: 14.50s" />
        <line class="line" x1="875.88" y1="390.00" x2="847.28" y2="427.28" stroke="#0000FF" style="animation-delay: 14.60s" />
        <line class="line" x1="847.28" y1="427.28" x2="810.00" y2="455.88" stroke="#0000FF" style="animation-delay: 14.70s" />
        <line class="line" x1="810.00" y1="455.88" x2="766.59" y2="473.87" stroke="#0000FF" style="animation-delay: 14.80s" />
        <line class="line" x1="766.59" y1="473.87" x2="720.00" y2="480.00" stroke="#0000FF" style="animation-delay: 14.90s" />
        <line class="line" x1="720.00" y1="480.00" x2="673.41" y2="473.87" stroke="#0000FF" style="animation-delay: 15.00s" />
        <line class="line" x1="673.41" y1="473.87" x2="630.00" y2="455.88" stroke="#0000FF" style="animation-delay: 15.10s" />
        <line class="line" x1="630.00" y1="455.88" x2="592.72" y2="427.28" stroke="#0000FF" style="animation-delay: 15.20s" />
        <line class="line" x1="592.72" y1="427.28" x2="564.12" y2="390.00" stroke="#0000FF" style="animation-delay: 15.30s" />
        <line class="line" x1="564.12" y1="390.00" x2="546.13" y2="346.59" stroke="#0000FF" style="animation-delay: 15.40s" />
        <line class="line" x1="546.13" y1="346.59" x2="540.00" y2="300.00" stroke="#0000FF" style="animation-delay: 15.50s" />
        <line class="line" x1="540.00" y1="300.00" x2="546.13" y2="253.41" stroke="#0000FF" style="animation-delay: 15.60s" />
        <line class="line" x1="546.13" y1="253.41" x2="564.12" y2="210.00" stroke="#0000FF" style="animation-delay: 15.70s" />
        <line class="line" x1="564.12" y1="210.00" x2="592.72" y2="172.72" stroke="#0000FF" style="animation-delay: 15.80s" />
        <line class="line" x1="592.72" y1="172.72" x2="630.00" y2="144.12" stroke="#0000FF" style="animation-delay: 15.90s" />
        <line class="line" x1="630.00" y1="144.12" x2="673.41" y2="126.13" stroke="#0000FF" style="animation-delay: 16.00s" />
        <line class="line" x1="673.41" y1="126.13" x2="720.00" y2="120.00" stroke="#0000FF" style="animation-delay: 16.10s" />
        <line class="line" x1="720.00" y1="120.00" x2="766.59" y2="126.13" stroke="#0000FF" style="animation-delay: 16.20s" />
        <line class="line" x1="766.59" y1="126.13" x2="810.00" y2="144.12" stroke="#0000FF" style="animation-delay: 16.30s" />
        <line class="line" x1="810.00" y1="144.12" x2="847.28" y2="172.72" stroke="#0000FF" style="animation-delay: 16.40s" />
        <line class="line" x1="847.28" y1="172.72" x2="875.88" y2="210.00" stroke="#0000FF" style="animation-delay: 16.50s" />
        <line class="line" x1="875.88" y1="210.00" x2="893.87" y2="253.41" stroke="#0000FF" style="animation-delay: 16.60s" />
        <line class="line" x1="893.87" y1="253.41" x2="900.00" y2="300.00" stroke="#0000FF" style="animation-delay: 16.70s" />
        <circle class="dot" cx="936.00" cy="300.00" r="1.6" fill="#4B0082" style="animation-delay: 24.00s" />
        <circle class="dot" cx="928.64" cy="355.90" r="1.6" fill="#4B0082" style="animation-delay: 24.20s" />
        <circle class="dot" cx="907.06" cy="408.00" r="1.6" fill="#4B0082" style="animation-delay: 24.40s" />
        <circle class="dot" cx="872.74" cy="452.74" r="1.6" fill="#4B0082" style="animation-delay: 24.60s" />
        <circle class="dot" cx="828.00" cy="487.06" r="1.6" fill="#4B0082" style="animation-delay: 24.80s" />
        <circle class="dot" cx="775.90" cy="508.64" r="1.6" fill="#4B0082" style="animation-delay: 25.00s" />
        <circle class="dot" cx="720.00" cy="516.00" r="1.6" fill="#4B0082" style="animation-delay: 25.20s" />
        <circle class="dot" cx="664.10" cy="508.64" r="1.6" fill="#4B0082" style="animation-delay: 25.40s" />
        <circle class="dot" cx="612.00" cy="487.06" r="1.6" fill="#4B0082" style="animation-delay: 25.60s" />
        <circle class="dot" cx="567.26" cy="452.74" r="1.6" fill="#4B0082" style="animation-delay: 25.80s" />
        <circle class="dot" cx="532.94" cy="408.00" r="1.6" fill="#4B0082" style="animation-delay: 26.00s" />
        <circle class="dot" cx="511.36" cy="355.90" r="1.6" fill="#4B0082" style="animation-delay: 26.20s" />
        <circle class="dot" cx="504.00" cy="300.00" r="1.6" fill="#4B0082" style="animation-delay: 26.40s" />
        <circle class="dot" cx="511.36" cy="244.10" r="1.6" fill="#4B0082" style="animation-delay: 26.60s" />
        <circle class="dot" cx="532.94" cy="192.00" r="1.6" fill="#4B0082" style="animation-delay: 26.80s" />
        <circle class="dot" cx="567.26" cy="147.26" r="1.6" fill="#4B0082" style="animation-delay: 27.00s" />
        <circle class="dot" cx="612.00" cy="112.94" r="1.6" fill="#4B0082" style="animation-delay: 27.20s" />
        <circle class="dot" cx="664.10" cy="91.36" r="1.6" fill="#4B0082" style="animation-delay: 27.40s" />
        <circle class="dot" cx="720.00" cy="84.00" r="1.6" fill="#4B0082" style="animation-delay: 27.60s" />
        <circle class="dot" cx="775.90" cy="91.36" r="1.6" fill="#4B0082" style="animation-delay: 27.80s" />
        <circle class="dot" cx="828.00" cy="112.94" r="1.6" fill="#4B0082" style="animation-delay: 28.00s" />
        <circle class="dot" cx="872.74" cy="147.26" r="1.6" fill="#4B0082" style="animation-delay: 28.20s" />
        <circle class="dot" cx="907.06" cy="192.00" r="1.6" fill="#4B0082" style="animation-delay: 28.40s" />
        <circle class="dot" cx="928.64" cy="244.10" r="1.6" fill="#4B0082" style="animation-delay: 28.60s" />
        <line class="line" x1="936.00" y1="300.00" x2="928.64" y2="355.90" stroke="#4B0082" style="animation-delay: 16.80s" />
        <line class="line" x1="928.64" y1="355.90" x2="907.06" y2="408.00" stroke="#4B0082" style="animation-delay: 16.90s" />
        <line class="line" x1="907.06" y1="408.00" x2="872.74" y2="452.74" stroke="#4B0082" style="animation-delay: 17.00s" />
        <line class="line" x1="872.74" y1="452.74" x2="828.00" y2="487.06" stroke="#4B0082" style="animation-delay: 17.10s" />
        <line class="line" x1="828.00" y1="487.06" x2="775.90" y2="508.64" stroke="#4B0082" style="animation-delay: 17.20s" />
        <line class="line" x1="775.90" y1="508.64" x2="720.00" y2="516.00" stroke="#4B0082" style="animation-delay: 17.30s" />
        <line class="line" x1="720.00" y1="516.00" x2="664.10" y2="508.64" stroke="#4B0082" style="animation-delay: 17.40s" />
        <line class="line" x1="664.10" y1="508.64" x2="612.00" y2="487.06" stroke="#4B0082" style="animation-delay: 17.50s" />
        <line class="line" x1="612.00" y1="487.06" x2="567.26" y2="452.74" stroke="#4B0082" style="animation-delay: 17.60s" />
        <line class="line" x1="567.26" y1="452.74" x2="532.94" y2="408.00" stroke="#4B0082" style="animation-delay: 17.70s" />
        <line class="line" x1="532.94" y1="408.00" x2="511.36" y2="355.90" stroke="#4B0082" style="animation-delay: 17.80s" />
        <line class="line" x1="511.36" y1="355.90" x2="504.00" y2="300.00" stroke="#4B0082" style="animation-delay: 17.90s" />
        <line class="line" x1="504.00" y1="300.00" x2="511.36" y2="244.10" stroke="#4B0082" style="animation-delay: 18.00s" />
        <line class="line" x1="511.36" y1="244.10" x2="532.94" y2="192.00" stroke="#4B0082" style="animation-delay: 18.10s" />
        <line class="line" x1="532.94" y1="192.00" x2="567.26" y2="147.26" stroke="#4B0082" style="animation-delay: 18.20s" />
        <line class="line" x1="567.26" y1="147.26" x2="612.00" y2="112.94" stroke="#4B0082" style="animation-delay: 18.30s" />
        <line class="line" x1="612.00" y1="112.94" x2="664.10" y2="91.36" stroke="#4B0082" style="animation-delay: 18.40s" />
        <line class="line" x1="664.10" y1="91.36" x2="720.00" y2="84.00" stroke="#4B0082" style="animation-delay: 18.50s" />
        <line class="line" x1="720.00" y1="84.00" x2="775.90" y2="91.36" stroke="#4B0082" style="animation-delay: 18.60s" />
        <line class="line" x1="775.90" y1="91.36" x2="828.00" y2="112.94" stroke="#4B0082" style="animation-delay: 18.70s" />
        <line class="line" x1="828.00" y1="112.94" x2="872.74" y2="147.26" stroke="#4B0082" style="animation-delay: 18.80s" />
        <line class="line" x1="872.74" y1="147.26" x2="907.06" y2="192.00" stroke="#4B0082" style="animation-delay: 18.90s" />
        <line class="line" x1="907.06" y1="192.00" x2="928.64" y2="244.10" stroke="#4B0082" style="animation-delay: 19.00s" />
        <line class="line" x1="928.64" y1="244.10" x2="936.00" y2="300.00" stroke="#4B0082" style="animation-delay: 19.10s" />
        <circle class="dot" cx="972.00" cy="300.00" r="1.6" fill="#8B00FF" style="animation-delay: 28.80s" />
        <circle class="dot" cx="963.41" cy="365.22" r="1.6" fill="#8B00FF" style="animation-delay: 29.00s" />
        <circle class="dot" cx="938.24" cy="426.00" r="1.6" fill="#8B00FF" style="animation-delay: 29.20s" />
        <circle class="dot" cx="898.19" cy="478.19" r="1.6" fill="#8B00FF" style="animation-delay: 29.40s" />
        <circle class="dot" cx="846.00" cy="518.24" r="1.6" fill="#8B00FF" style="animation-delay: 29.60s" />
        <circle class="dot" cx="785.22" cy="543.41" r="1.6" fill="#8B00FF" style="animation-delay: 29.80s" />
        <circle class="dot" cx="720.00" cy="552.00" r="1.6" fill="#8B00FF" style="animation-delay: 30.00s" />
        <circle class="dot" cx="654.78" cy="543.41" r="1.6" fill="#8B00FF" style="animation-delay: 30.20s" />
        <circle class="dot" cx="594.00" cy="518.24" r="1.6" fill="#8B00FF" style="animation-delay: 30.40s" />
        <circle class="dot" cx="541.81" cy="478.19" r="1.6" fill="#8B00FF" style="animation-delay: 30.60s" />
        <circle class="dot" cx="501.76" cy="426.00" r="1.6" fill="#8B00FF" style="animation-delay: 30.80s" />
        <circle class="dot" cx="476.59" cy="365.22" r="1.6" fill="#8B00FF" style="animation-delay: 31.00s" />
        <circle class="dot" cx="468.00" cy="300.00" r="1.6" fill="#8B00FF" style="animation-delay: 31.20s" />
        <circle class="dot" cx="476.59" cy="234.78" r="1.6" fill="#8B00FF" style="animation-delay: 31.40s" />
        <circle class="dot" cx="501.76" cy="174.00" r="1.6" fill="#8B00FF" style="animation-delay: 31.60s" />
        <circle class="dot" cx="541.81" cy="121.81" r="1.6" fill="#8B00FF" style="animation-delay: 31.80s" />
        <circle class="dot" cx="594.00" cy="81.76" r="1.6" fill="#8B00FF" style="animation-delay: 32.00s" />
        <circle class="dot" cx="654.78" cy="56.59" r="1.6" fill="#8B00FF" style="animation-delay: 32.20s" />
        <circle class="dot" cx="720.00" cy="48.00" r="1.6" fill="#8B00FF" style="animation-delay: 32.40s" />
        <circle class="dot" cx="785.22" cy="56.59" r="1.6" fill="#8B00FF" style="animation-delay: 32.60s" />
        <circle class="dot" cx="846.00" cy="81.76" r="1.6" fill="#8B00FF" style="animation-delay: 32.80s" />
        <circle class="dot" cx="898.19" cy="121.81" r="1.6" fill="#8B00FF" style="animation-delay: 33.00s" />
        <circle class="dot" cx="938.24" cy="174.00" r="1.6" fill="#8B00FF" style="animation-delay: 33.20s" />
        <circle class="dot" cx="963.41" cy="234.78" r="1.6" fill="#8B00FF" style="animation-delay: 33.40s" />
        <line class="line" x1="972.00" y1="300.00" x2="963.41" y2="365.22" stroke="#8B00FF" style="animation-delay: 19.20s" />
        <line class="line" x1="963.41" y1="365.22" x2="938.24" y2="426.00" stroke="#8B00FF" style="animation-delay: 19.30s" />
        <line class="line" x1="938.24" y1="426.00" x2="898.19" y2="478.19" stroke="#8B00FF" style="animation-delay: 19.40s" />
        <line class="line" x1="898.19" y1="478.19" x2="846.00" y2="518.24" stroke="#8B00FF" style="animation-delay: 19.50s" />
        <line class="line" x1="846.00" y1="518.24" x2="785.22" y2="543.41" stroke="#8B00FF" style="animation-delay: 19.60s" />
        <line class="line" x1="785.22" y1="543.41" x2="720.00" y2="552.00" stroke="#8B00FF" style="animation-delay: 19.70s" />
        <line class="line" x1="720.00" y1="552.00" x2="654.78" y2="543.41" stroke="#8B00FF" style="animation-delay: 19.80s" />
        <line class="line" x1="654.78" y1="543.41" x2="594.00" y2="518.24" stroke="#8B00FF" style="animation-delay: 19.90s" />
        <line class="line" x1="594.00" y1="518.24" x2="541.81" y2="478.19" stroke="#8B00FF" style="animation-delay: 20.00s" />
        <line class="line" x1="541.81" y1="478.19" x2="501.76" y2="426.00" stroke="#8B00FF" style="animation-delay: 20.10s" />
        <line class="line" x1="501.76" y1="426.00" x2="476.59" y2="365.22" stroke="#8B00FF" style="animation-delay: 20.20s" />
        <line class="line" x1="476.59" y1="365.22" x2="468.00" y2="300.00" stroke="#8B00FF" style="animation-delay: 20.30s" />
        <line class="line" x1="468.00" y1="300.00" x2="476.59" y2="234.78" stroke="#8B00FF" style="animation-delay: 20.40s" />
        <line class="line" x1="476.59" y1="234.78" x2="501.76" y2="174.00" stroke="#8B00FF" style="animation-delay: 20.50s" />
        <line class="line" x1="501.76" y1="174.00" x2="541.81" y2="121.81" stroke="#8B00FF" style="animation-delay: 20.60s" />
        <line class="line" x1="541.81" y1="121.81" x2="594.00" y2="81.76" stroke="#8B00FF" style="animation-delay: 20.70s" />
        <line class="line" x1="594.00" y1="81.76" x2="654.78" y2="56.59" stroke="#8B00FF" style="animation-delay: 20.80s" />
        <line class="line" x1="654.78" y1="56.59" x2="720.00" y2="48.00" stroke="#8B00FF" style="animation-delay: 20.90s" />
        <line class="line" x1="720.00" y1="48.00" x2="785.22" y2="56.59" stroke="#8B00FF" style="animation-delay: 21.00s" />
        <line class="line" x1="785.22" y1="56.59" x2="846.00" y2="81.76" stroke="#8B00FF" style="animation-delay: 21.10s" />
        <line class="line" x1="846.00" y1="81.76" x2="898.19" y2="121.81" stroke="#8B00FF" style="animation-delay: 21.20s" />
        <line class="line" x1="898.19" y1="121.81" x2="938.24" y2="174.00" stroke="#8B00FF" style="animation-delay: 21.30s" />
        <line class="line" x1="938.24" y1="174.00" x2="963.41" y2="234.78" stroke="#8B00FF" style="animation-delay: 21.40s" />
        <line class="line" x1="963.41" y1="234.78" x2="972.00" y2="300.00" stroke="#8B00FF" style="animation-delay: 21.50s" />

        <ellipse class="center-eye" cx="720" cy="300" rx="72" ry="36.0" />
        <circle class="center-eye" cx="720" cy="300" r="8" />
        <line class="center-eye" x1="648" y1="300" x2="792" y2="300" />
    </g>
</svg>