<svg viewBox="0 0 1440 900" xmlns="http://www.w3.org/2000/svg"
  style="width:100%; height:100%; background:#0A0A1A;">
  <defs>
    <filter id="glow" x="-50%" y="-50%" width="200%" height="200%">
      <feGaussianBlur in="SourceGraphic" stdDeviation="1.2" result="blur"/>
      <feMerge>
        <feMergeNode in="blur"/>
        <feMergeNode in="SourceGraphic"/>
      </feMerge>
    </filter>
    <style>
      .dot {
        fill:rgb(133, 125, 246);
        opacity: 0.9;
        filter: url(#glow);
        animation: pulse 4s infinite ease-in-out, float 10s infinite ease-in-out;
      }
      .line {
        stroke:rgb(255, 255, 255);
        stroke-width: 2;
        stroke-linecap: round;
        opacity: 0.035;
        stroke-dasharray: 120;
        stroke-dashoffset: 120;
        filter: url(#glow);
        animation: draw 6s ease-in-out infinite alternate;
      }
      @keyframes pulse {
        0%, 100% { r: 1.8; opacity: 0.3; }
        50% { r: 2.52; opacity: 1; }
      }
      @keyframes draw {
        to { stroke-dashoffset: 0; }
      }
      @keyframes float {
        0%, 100% { transform: translate(0, 0); }
        25% { transform: translate(-2px, 3px); }
        50% { transform: translate(0px, -3px); }
        75% { transform: translate(2px, 2px); }
      }
    </style>
  </defs>
  <g id="resiliz-floating-parallax-network">
<circle class="dot" cx="1373.20" cy="371.33" r="1.8" style="animation-delay:1.74s;" />
<circle class="dot" cx="795.76" cy="786.26" r="1.8" style="animation-delay:1.58s;" />
<circle class="dot" cx="1054.32" cy="759.25" r="1.8" style="animation-delay:1.81s;" />
<circle class="dot" cx="364.59" cy="598.70" r="1.8" style="animation-delay:0.96s;" />
<circle class="dot" cx="62.39" cy="899.88" r="1.8" style="animation-delay:0.96s;" />
<circle class="dot" cx="1303.19" cy="166.26" r="1.8" style="animation-delay:1.47s;" />
<circle class="dot" cx="659.60" cy="364.54" r="1.8" style="animation-delay:1.02s;" />
<circle class="dot" cx="1108.09" cy="882.68" r="1.8" style="animation-delay:1.99s;" />
<circle class="dot" cx="1039.48" cy="802.65" r="1.8" style="animation-delay:1.84s;" />
<circle class="dot" cx="746.34" cy="37.45" r="1.8" style="animation-delay:0.78s;" />
<circle class="dot" cx="771.20" cy="542.06" r="1.8" style="animation-delay:1.31s;" />
<circle class="dot" cx="612.06" cy="285.93" r="1.8" style="animation-delay:0.90s;" />
<circle class="dot" cx="1210.19" cy="212.52" r="1.8" style="animation-delay:1.42s;" />
<circle class="dot" cx="133.18" cy="488.35" r="1.8" style="animation-delay:0.62s;" />
<circle class="dot" cx="1014.22" cy="201.20" r="1.8" style="animation-delay:1.22s;" />
<circle class="dot" cx="536.59" cy="36.27" r="1.8" style="animation-delay:0.57s;" />
<circle class="dot" cx="1330.49" cy="210.49" r="1.8" style="animation-delay:1.54s;" />
<circle class="dot" cx="311.30" cy="152.51" r="1.8" style="animation-delay:0.46s;" />
<circle class="dot" cx="556.89" cy="481.65" r="1.8" style="animation-delay:1.04s;" />
<circle class="dot" cx="121.69" cy="146.89" r="1.8" style="animation-delay:0.27s;" />
<circle class="dot" cx="358.80" cy="340.94" r="1.8" style="animation-delay:0.70s;" />
<circle class="dot" cx="749.04" cy="107.60" r="1.8" style="animation-delay:0.86s;" />
<circle class="dot" cx="639.47" cy="665.77" r="1.8" style="animation-delay:1.31s;" />
<circle class="dot" cx="1231.02" cy="303.48" r="1.8" style="animation-delay:1.53s;" />
<circle class="dot" cx="105.68" cy="26.44" r="1.8" style="animation-delay:0.13s;" />
<circle class="dot" cx="701.77" cy="356.87" r="1.8" style="animation-delay:1.06s;" />
<circle class="dot" cx="1396.10" cy="746.99" r="1.8" style="animation-delay:2.14s;" />
<circle class="dot" cx="702.32" cy="221.51" r="1.8" style="animation-delay:0.92s;" />
<circle class="dot" cx="1261.73" cy="121.39" r="1.8" style="animation-delay:1.38s;" />
<circle class="dot" cx="1161.39" cy="702.97" r="1.8" style="animation-delay:1.86s;" />
<circle class="dot" cx="158.01" cy="869.87" r="1.8" style="animation-delay:1.03s;" />
<circle class="dot" cx="346.73" cy="525.17" r="1.8" style="animation-delay:0.87s;" />
<circle class="dot" cx="723.48" cy="20.06" r="1.8" style="animation-delay:0.74s;" />
<circle class="dot" cx="530.47" cy="225.19" r="1.8" style="animation-delay:0.76s;" />
<circle class="dot" cx="305.18" cy="156.13" r="1.8" style="animation-delay:0.46s;" />
<circle class="dot" cx="328.62" cy="771.26" r="1.8" style="animation-delay:1.10s;" />
<circle class="dot" cx="1387.75" cy="440.50" r="1.8" style="animation-delay:1.83s;" />
<circle class="dot" cx="1261.67" cy="401.17" r="1.8" style="animation-delay:1.66s;" />
<circle class="dot" cx="1398.70" cy="879.86" r="1.8" style="animation-delay:2.28s;" />
<circle class="dot" cx="859.50" cy="468.08" r="1.8" style="animation-delay:1.33s;" />
<circle class="dot" cx="508.99" cy="315.32" r="1.8" style="animation-delay:0.82s;" />
<circle class="dot" cx="590.18" cy="661.51" r="1.8" style="animation-delay:1.25s;" />
<circle class="dot" cx="439.26" cy="94.43" r="1.8" style="animation-delay:0.53s;" />
<circle class="dot" cx="363.83" cy="427.90" r="1.8" style="animation-delay:0.79s;" />
<circle class="dot" cx="326.96" cy="684.06" r="1.8" style="animation-delay:1.01s;" />
<circle class="dot" cx="138.62" cy="439.00" r="1.8" style="animation-delay:0.58s;" />
<circle class="dot" cx="808.78" cy="300.76" r="1.8" style="animation-delay:1.11s;" />
<circle class="dot" cx="160.00" cy="418.77" r="1.8" style="animation-delay:0.58s;" />
<circle class="dot" cx="558.72" cy="377.89" r="1.8" style="animation-delay:0.94s;" />
<circle class="dot" cx="751.30" cy="190.71" r="1.8" style="animation-delay:0.94s;" />
<circle class="dot" cx="1309.13" cy="266.08" r="1.8" style="animation-delay:1.58s;" />
<circle class="dot" cx="52.25" cy="881.87" r="1.8" style="animation-delay:0.93s;" />
<circle class="dot" cx="1373.52" cy="429.48" r="1.8" style="animation-delay:1.80s;" />
<circle class="dot" cx="716.96" cy="770.35" r="1.8" style="animation-delay:1.49s;" />
<circle class="dot" cx="1302.52" cy="655.57" r="1.8" style="animation-delay:1.96s;" />
<circle class="dot" cx="866.11" cy="813.82" r="1.8" style="animation-delay:1.68s;" />
<circle class="dot" cx="949.36" cy="736.52" r="1.8" style="animation-delay:1.69s;" />
<circle class="dot" cx="1060.95" cy="5.61" r="1.8" style="animation-delay:1.07s;" />
<circle class="dot" cx="272.01" cy="399.16" r="1.8" style="animation-delay:0.67s;" />
<circle class="dot" cx="848.08" cy="569.51" r="1.8" style="animation-delay:1.42s;" />
<circle class="dot" cx="305.85" cy="411.67" r="1.8" style="animation-delay:0.72s;" />
<circle class="dot" cx="888.72" cy="287.44" r="1.8" style="animation-delay:1.18s;" />
<circle class="dot" cx="1219.77" cy="216.43" r="1.8" style="animation-delay:1.44s;" />
<circle class="dot" cx="803.37" cy="261.30" r="1.8" style="animation-delay:1.06s;" />
<circle class="dot" cx="609.88" cy="547.83" r="1.8" style="animation-delay:1.16s;" />
<circle class="dot" cx="543.99" cy="33.54" r="1.8" style="animation-delay:0.58s;" />
<circle class="dot" cx="1318.29" cy="89.57" r="1.8" style="animation-delay:1.41s;" />
<circle class="dot" cx="1174.93" cy="676.85" r="1.8" style="animation-delay:1.85s;" />
<circle class="dot" cx="1350.60" cy="740.62" r="1.8" style="animation-delay:2.09s;" />
<circle class="dot" cx="1096.74" cy="324.46" r="1.8" style="animation-delay:1.42s;" />
<circle class="dot" cx="594.09" cy="640.10" r="1.8" style="animation-delay:1.23s;" />
<circle class="dot" cx="564.41" cy="810.99" r="1.8" style="animation-delay:1.38s;" />
<circle class="dot" cx="90.64" cy="591.20" r="1.8" style="animation-delay:0.68s;" />
<circle class="dot" cx="1180.10" cy="615.95" r="1.8" style="animation-delay:1.80s;" />
<circle class="dot" cx="1389.07" cy="548.41" r="1.8" style="animation-delay:1.94s;" />
<circle class="dot" cx="504.69" cy="894.68" r="1.8" style="animation-delay:1.40s;" />
<circle class="dot" cx="1067.35" cy="712.72" r="1.8" style="animation-delay:1.78s;" />
<circle class="dot" cx="726.95" cy="128.01" r="1.8" style="animation-delay:0.85s;" />
<circle class="dot" cx="1154.93" cy="449.22" r="1.8" style="animation-delay:1.60s;" />
<circle class="dot" cx="947.59" cy="451.52" r="1.8" style="animation-delay:1.40s;" />
<circle class="dot" cx="968.34" cy="150.01" r="1.8" style="animation-delay:1.12s;" />
<circle class="dot" cx="514.84" cy="51.47" r="1.8" style="animation-delay:0.57s;" />
<circle class="dot" cx="112.54" cy="226.58" r="1.8" style="animation-delay:0.34s;" />
<circle class="dot" cx="23.73" cy="82.80" r="1.8" style="animation-delay:0.11s;" />
<circle class="dot" cx="385.48" cy="361.69" r="1.8" style="animation-delay:0.75s;" />
<circle class="dot" cx="1108.44" cy="404.30" r="1.8" style="animation-delay:1.51s;" />
<circle class="dot" cx="1034.78" cy="643.43" r="1.8" style="animation-delay:1.68s;" />
<circle class="dot" cx="1155.72" cy="454.93" r="1.8" style="animation-delay:1.61s;" />
<circle class="dot" cx="467.12" cy="171.90" r="1.8" style="animation-delay:0.64s;" />
<circle class="dot" cx="364.55" cy="832.66" r="1.8" style="animation-delay:1.20s;" />
<circle class="dot" cx="718.90" cy="46.07" r="1.8" style="animation-delay:0.76s;" />
<circle class="dot" cx="1383.90" cy="436.15" r="1.8" style="animation-delay:1.82s;" />
<circle class="dot" cx="480.27" cy="266.82" r="1.8" style="animation-delay:0.75s;" />
<circle class="dot" cx="1045.54" cy="632.99" r="1.8" style="animation-delay:1.68s;" />
<circle class="dot" cx="899.67" cy="250.63" r="1.8" style="animation-delay:1.15s;" />
<circle class="dot" cx="271.31" cy="713.46" r="1.8" style="animation-delay:0.98s;" />
<circle class="dot" cx="523.34" cy="172.01" r="1.8" style="animation-delay:0.70s;" />
<circle class="dot" cx="1252.09" cy="447.44" r="1.8" style="animation-delay:1.70s;" />
<circle class="dot" cx="1135.51" cy="794.44" r="1.8" style="animation-delay:1.93s;" />
<circle class="dot" cx="1139.17" cy="143.38" r="1.8" style="animation-delay:1.28s;" />
<line class="line" x1="1373.20" y1="371.33" x2="1330.49" y2="210.49" style="animation-delay:1.64s;" />
<line class="line" x1="1373.20" y1="371.33" x2="1231.02" y2="303.48" style="animation-delay:1.64s;" />
<line class="line" x1="1373.20" y1="371.33" x2="1387.75" y2="440.50" style="animation-delay:1.79s;" />
<line class="line" x1="1373.20" y1="371.33" x2="1261.67" y2="401.17" style="animation-delay:1.70s;" />
<line class="line" x1="1373.20" y1="371.33" x2="1309.13" y2="266.08" style="animation-delay:1.66s;" />
<line class="line" x1="1373.20" y1="371.33" x2="1373.52" y2="429.48" style="animation-delay:1.77s;" />
<line class="line" x1="1373.20" y1="371.33" x2="1389.07" y2="548.41" style="animation-delay:1.84s;" />
<line class="line" x1="1373.20" y1="371.33" x2="1383.90" y2="436.15" style="animation-delay:1.78s;" />
<line class="line" x1="1373.20" y1="371.33" x2="1252.09" y2="447.44" style="animation-delay:1.72s;" />
<line class="line" x1="795.76" y1="786.26" x2="639.47" y2="665.77" style="animation-delay:1.44s;" />
<line class="line" x1="795.76" y1="786.26" x2="716.96" y2="770.35" style="animation-delay:1.53s;" />
<line class="line" x1="795.76" y1="786.26" x2="866.11" y2="813.82" style="animation-delay:1.63s;" />
<line class="line" x1="795.76" y1="786.26" x2="949.36" y2="736.52" style="animation-delay:1.63s;" />
<line class="line" x1="1054.32" y1="759.25" x2="1108.09" y2="882.68" style="animation-delay:1.90s;" />
<line class="line" x1="1054.32" y1="759.25" x2="1039.48" y2="802.65" style="animation-delay:1.83s;" />
<line class="line" x1="1054.32" y1="759.25" x2="1161.39" y2="702.97" style="animation-delay:1.84s;" />
<line class="line" x1="1054.32" y1="759.25" x2="866.11" y2="813.82" style="animation-delay:1.75s;" />
<line class="line" x1="1054.32" y1="759.25" x2="949.36" y2="736.52" style="animation-delay:1.75s;" />
<line class="line" x1="1054.32" y1="759.25" x2="1174.93" y2="676.85" style="animation-delay:1.83s;" />
<line class="line" x1="1054.32" y1="759.25" x2="1180.10" y2="615.95" style="animation-delay:1.80s;" />
<line class="line" x1="1054.32" y1="759.25" x2="1067.35" y2="712.72" style="animation-delay:1.80s;" />
<line class="line" x1="1054.32" y1="759.25" x2="1034.78" y2="643.43" style="animation-delay:1.75s;" />
<line class="line" x1="1054.32" y1="759.25" x2="1045.54" y2="632.99" style="animation-delay:1.75s;" />
<line class="line" x1="1054.32" y1="759.25" x2="1135.51" y2="794.44" style="animation-delay:1.87s;" />
<line class="line" x1="364.59" y1="598.70" x2="346.73" y2="525.17" style="animation-delay:0.92s;" />
<line class="line" x1="364.59" y1="598.70" x2="328.62" y2="771.26" style="animation-delay:1.03s;" />
<line class="line" x1="364.59" y1="598.70" x2="363.83" y2="427.90" style="animation-delay:0.88s;" />
<line class="line" x1="364.59" y1="598.70" x2="326.96" y2="684.06" style="animation-delay:0.99s;" />
<line class="line" x1="364.59" y1="598.70" x2="305.85" y2="411.67" style="animation-delay:0.84s;" />
<line class="line" x1="364.59" y1="598.70" x2="271.31" y2="713.46" style="animation-delay:0.97s;" />
<line class="line" x1="62.39" y1="899.88" x2="158.01" y2="869.87" style="animation-delay:1.00s;" />
<line class="line" x1="62.39" y1="899.88" x2="52.25" y2="881.87" style="animation-delay:0.95s;" />
<line class="line" x1="1303.19" y1="166.26" x2="1210.19" y2="212.52" style="animation-delay:1.45s;" />
<line class="line" x1="1303.19" y1="166.26" x2="1330.49" y2="210.49" style="animation-delay:1.51s;" />
<line class="line" x1="1303.19" y1="166.26" x2="1231.02" y2="303.48" style="animation-delay:1.50s;" />
<line class="line" x1="1303.19" y1="166.26" x2="1261.73" y2="121.39" style="animation-delay:1.43s;" />
<line class="line" x1="1303.19" y1="166.26" x2="1309.13" y2="266.08" style="animation-delay:1.52s;" />
<line class="line" x1="1303.19" y1="166.26" x2="1219.77" y2="216.43" style="animation-delay:1.45s;" />
<line class="line" x1="1303.19" y1="166.26" x2="1318.29" y2="89.57" style="animation-delay:1.44s;" />
<line class="line" x1="1303.19" y1="166.26" x2="1139.17" y2="143.38" style="animation-delay:1.38s;" />
<line class="line" x1="659.60" y1="364.54" x2="612.06" y2="285.93" style="animation-delay:0.96s;" />
<line class="line" x1="659.60" y1="364.54" x2="556.89" y2="481.65" style="animation-delay:1.03s;" />
<line class="line" x1="659.60" y1="364.54" x2="701.77" y2="356.87" style="animation-delay:1.04s;" />
<line class="line" x1="659.60" y1="364.54" x2="702.32" y2="221.51" style="animation-delay:0.97s;" />
<line class="line" x1="659.60" y1="364.54" x2="530.47" y2="225.19" style="animation-delay:0.89s;" />
<line class="line" x1="659.60" y1="364.54" x2="508.99" y2="315.32" style="animation-delay:0.92s;" />
<line class="line" x1="659.60" y1="364.54" x2="808.78" y2="300.76" style="animation-delay:1.07s;" />
<line class="line" x1="659.60" y1="364.54" x2="558.72" y2="377.89" style="animation-delay:0.98s;" />
<line class="line" x1="659.60" y1="364.54" x2="751.30" y2="190.71" style="animation-delay:0.98s;" />
<line class="line" x1="659.60" y1="364.54" x2="803.37" y2="261.30" style="animation-delay:1.04s;" />
<line class="line" x1="659.60" y1="364.54" x2="609.88" y2="547.83" style="animation-delay:1.09s;" />
<line class="line" x1="1108.09" y1="882.68" x2="1039.48" y2="802.65" style="animation-delay:1.92s;" />
<line class="line" x1="1108.09" y1="882.68" x2="1161.39" y2="702.97" style="animation-delay:1.93s;" />
<line class="line" x1="1108.09" y1="882.68" x2="1067.35" y2="712.72" style="animation-delay:1.89s;" />
<line class="line" x1="1108.09" y1="882.68" x2="1135.51" y2="794.44" style="animation-delay:1.96s;" />
<line class="line" x1="1039.48" y1="802.65" x2="1161.39" y2="702.97" style="animation-delay:1.85s;" />
<line class="line" x1="1039.48" y1="802.65" x2="866.11" y2="813.82" style="animation-delay:1.76s;" />
<line class="line" x1="1039.48" y1="802.65" x2="949.36" y2="736.52" style="animation-delay:1.76s;" />
<line class="line" x1="1039.48" y1="802.65" x2="1174.93" y2="676.85" style="animation-delay:1.85s;" />
<line class="line" x1="1039.48" y1="802.65" x2="1067.35" y2="712.72" style="animation-delay:1.81s;" />
<line class="line" x1="1039.48" y1="802.65" x2="1034.78" y2="643.43" style="animation-delay:1.76s;" />
<line class="line" x1="1039.48" y1="802.65" x2="1045.54" y2="632.99" style="animation-delay:1.76s;" />
<line class="line" x1="1039.48" y1="802.65" x2="1135.51" y2="794.44" style="animation-delay:1.89s;" />
<line class="line" x1="746.34" y1="37.45" x2="749.04" y2="107.60" style="animation-delay:0.82s;" />
<line class="line" x1="746.34" y1="37.45" x2="702.32" y2="221.51" style="animation-delay:0.85s;" />
<line class="line" x1="746.34" y1="37.45" x2="723.48" y2="20.06" style="animation-delay:0.76s;" />
<line class="line" x1="746.34" y1="37.45" x2="751.30" y2="190.71" style="animation-delay:0.86s;" />
<line class="line" x1="746.34" y1="37.45" x2="726.95" y2="128.01" style="animation-delay:0.82s;" />
<line class="line" x1="746.34" y1="37.45" x2="718.90" y2="46.07" style="animation-delay:0.77s;" />
<line class="line" x1="771.20" y1="542.06" x2="639.47" y2="665.77" style="animation-delay:1.31s;" />
<line class="line" x1="771.20" y1="542.06" x2="701.77" y2="356.87" style="animation-delay:1.19s;" />
<line class="line" x1="771.20" y1="542.06" x2="859.50" y2="468.08" style="animation-delay:1.32s;" />
<line class="line" x1="771.20" y1="542.06" x2="848.08" y2="569.51" style="animation-delay:1.37s;" />
<line class="line" x1="771.20" y1="542.06" x2="609.88" y2="547.83" style="animation-delay:1.24s;" />
<line class="line" x1="771.20" y1="542.06" x2="947.59" y2="451.52" style="animation-delay:1.36s;" />
<line class="line" x1="612.06" y1="285.93" x2="701.77" y2="356.87" style="animation-delay:0.98s;" />
<line class="line" x1="612.06" y1="285.93" x2="702.32" y2="221.51" style="animation-delay:0.91s;" />
<line class="line" x1="612.06" y1="285.93" x2="530.47" y2="225.19" style="animation-delay:0.83s;" />
<line class="line" x1="612.06" y1="285.93" x2="508.99" y2="315.32" style="animation-delay:0.86s;" />
<line class="line" x1="612.06" y1="285.93" x2="808.78" y2="300.76" style="animation-delay:1.00s;" />
<line class="line" x1="612.06" y1="285.93" x2="558.72" y2="377.89" style="animation-delay:0.92s;" />
<line class="line" x1="612.06" y1="285.93" x2="751.30" y2="190.71" style="animation-delay:0.92s;" />
<line class="line" x1="612.06" y1="285.93" x2="803.37" y2="261.30" style="animation-delay:0.98s;" />
<line class="line" x1="612.06" y1="285.93" x2="726.95" y2="128.01" style="animation-delay:0.88s;" />
<line class="line" x1="612.06" y1="285.93" x2="467.12" y2="171.90" style="animation-delay:0.77s;" />
<line class="line" x1="612.06" y1="285.93" x2="480.27" y2="266.82" style="animation-delay:0.82s;" />
<line class="line" x1="612.06" y1="285.93" x2="523.34" y2="172.01" style="animation-delay:0.80s;" />
<line class="line" x1="1210.19" y1="212.52" x2="1014.22" y2="201.20" style="animation-delay:1.32s;" />
<line class="line" x1="1210.19" y1="212.52" x2="1330.49" y2="210.49" style="animation-delay:1.48s;" />
<line class="line" x1="1210.19" y1="212.52" x2="1231.02" y2="303.48" style="animation-delay:1.48s;" />
<line class="line" x1="1210.19" y1="212.52" x2="1261.73" y2="121.39" style="animation-delay:1.40s;" />
<line class="line" x1="1210.19" y1="212.52" x2="1261.67" y2="401.17" style="animation-delay:1.54s;" />
<line class="line" x1="1210.19" y1="212.52" x2="1309.13" y2="266.08" style="animation-delay:1.50s;" />
<line class="line" x1="1210.19" y1="212.52" x2="1219.77" y2="216.43" style="animation-delay:1.43s;" />
<line class="line" x1="1210.19" y1="212.52" x2="1318.29" y2="89.57" style="animation-delay:1.42s;" />
<line class="line" x1="1210.19" y1="212.52" x2="1096.74" y2="324.46" style="animation-delay:1.42s;" />
<line class="line" x1="1210.19" y1="212.52" x2="1139.17" y2="143.38" style="animation-delay:1.35s;" />
<line class="line" x1="133.18" y1="488.35" x2="138.62" y2="439.00" style="animation-delay:0.60s;" />
<line class="line" x1="133.18" y1="488.35" x2="160.00" y2="418.77" style="animation-delay:0.60s;" />
<line class="line" x1="133.18" y1="488.35" x2="272.01" y2="399.16" style="animation-delay:0.65s;" />
<line class="line" x1="133.18" y1="488.35" x2="305.85" y2="411.67" style="animation-delay:0.67s;" />
<line class="line" x1="133.18" y1="488.35" x2="90.64" y2="591.20" style="animation-delay:0.65s;" />
<line class="line" x1="1014.22" y1="201.20" x2="888.72" y2="287.44" style="animation-delay:1.20s;" />
<line class="line" x1="1014.22" y1="201.20" x2="1096.74" y2="324.46" style="animation-delay:1.32s;" />
<line class="line" x1="1014.22" y1="201.20" x2="968.34" y2="150.01" style="animation-delay:1.17s;" />
<line class="line" x1="1014.22" y1="201.20" x2="899.67" y2="250.63" style="animation-delay:1.18s;" />
<line class="line" x1="1014.22" y1="201.20" x2="1139.17" y2="143.38" style="animation-delay:1.25s;" />
<line class="line" x1="536.59" y1="36.27" x2="723.48" y2="20.06" style="animation-delay:0.66s;" />
<line class="line" x1="536.59" y1="36.27" x2="530.47" y2="225.19" style="animation-delay:0.66s;" />
<line class="line" x1="536.59" y1="36.27" x2="439.26" y2="94.43" style="animation-delay:0.55s;" />
<line class="line" x1="536.59" y1="36.27" x2="543.99" y2="33.54" style="animation-delay:0.58s;" />
<line class="line" x1="536.59" y1="36.27" x2="514.84" y2="51.47" style="animation-delay:0.57s;" />
<line class="line" x1="536.59" y1="36.27" x2="467.12" y2="171.90" style="animation-delay:0.61s;" />
<line class="line" x1="536.59" y1="36.27" x2="718.90" y2="46.07" style="animation-delay:0.67s;" />
<line class="line" x1="536.59" y1="36.27" x2="523.34" y2="172.01" style="animation-delay:0.63s;" />
<line class="line" x1="1330.49" y1="210.49" x2="1231.02" y2="303.48" style="animation-delay:1.54s;" />
<line class="line" x1="1330.49" y1="210.49" x2="1261.73" y2="121.39" style="animation-delay:1.46s;" />
<line class="line" x1="1330.49" y1="210.49" x2="1309.13" y2="266.08" style="animation-delay:1.56s;" />
<line class="line" x1="1330.49" y1="210.49" x2="1219.77" y2="216.43" style="animation-delay:1.49s;" />
<line class="line" x1="1330.49" y1="210.49" x2="1318.29" y2="89.57" style="animation-delay:1.47s;" />
<line class="line" x1="311.30" y1="152.51" x2="121.69" y2="146.89" style="animation-delay:0.37s;" />
<line class="line" x1="311.30" y1="152.51" x2="358.80" y2="340.94" style="animation-delay:0.58s;" />
<line class="line" x1="311.30" y1="152.51" x2="305.18" y2="156.13" style="animation-delay:0.46s;" />
<line class="line" x1="311.30" y1="152.51" x2="439.26" y2="94.43" style="animation-delay:0.50s;" />
<line class="line" x1="311.30" y1="152.51" x2="467.12" y2="171.90" style="animation-delay:0.55s;" />
<line class="line" x1="556.89" y1="481.65" x2="701.77" y2="356.87" style="animation-delay:1.05s;" />
<line class="line" x1="556.89" y1="481.65" x2="508.99" y2="315.32" style="animation-delay:0.93s;" />
<line class="line" x1="556.89" y1="481.65" x2="590.18" y2="661.51" style="animation-delay:1.15s;" />
<line class="line" x1="556.89" y1="481.65" x2="558.72" y2="377.89" style="animation-delay:0.99s;" />
<line class="line" x1="556.89" y1="481.65" x2="609.88" y2="547.83" style="animation-delay:1.10s;" />
<line class="line" x1="556.89" y1="481.65" x2="594.09" y2="640.10" style="animation-delay:1.14s;" />
<line class="line" x1="121.69" y1="146.89" x2="105.68" y2="26.44" style="animation-delay:0.20s;" />
<line class="line" x1="121.69" y1="146.89" x2="305.18" y2="156.13" style="animation-delay:0.36s;" />
<line class="line" x1="121.69" y1="146.89" x2="112.54" y2="226.58" style="animation-delay:0.30s;" />
<line class="line" x1="121.69" y1="146.89" x2="23.73" y2="82.80" style="animation-delay:0.19s;" />
<line class="line" x1="358.80" y1="340.94" x2="346.73" y2="525.17" style="animation-delay:0.79s;" />
<line class="line" x1="358.80" y1="340.94" x2="305.18" y2="156.13" style="animation-delay:0.58s;" />
<line class="line" x1="358.80" y1="340.94" x2="508.99" y2="315.32" style="animation-delay:0.76s;" />
<line class="line" x1="358.80" y1="340.94" x2="363.83" y2="427.90" style="animation-delay:0.75s;" />
<line class="line" x1="358.80" y1="340.94" x2="272.01" y2="399.16" style="animation-delay:0.69s;" />
<line class="line" x1="358.80" y1="340.94" x2="305.85" y2="411.67" style="animation-delay:0.71s;" />
<line class="line" x1="358.80" y1="340.94" x2="385.48" y2="361.69" style="animation-delay:0.72s;" />
<line class="line" x1="358.80" y1="340.94" x2="480.27" y2="266.82" style="animation-delay:0.72s;" />
<line class="line" x1="749.04" y1="107.60" x2="702.32" y2="221.51" style="animation-delay:0.89s;" />
<line class="line" x1="749.04" y1="107.60" x2="723.48" y2="20.06" style="animation-delay:0.80s;" />
<line class="line" x1="749.04" y1="107.60" x2="751.30" y2="190.71" style="animation-delay:0.90s;" />
<line class="line" x1="749.04" y1="107.60" x2="803.37" y2="261.30" style="animation-delay:0.96s;" />
<line class="line" x1="749.04" y1="107.60" x2="726.95" y2="128.01" style="animation-delay:0.86s;" />
<line class="line" x1="749.04" y1="107.60" x2="718.90" y2="46.07" style="animation-delay:0.81s;" />
<line class="line" x1="639.47" y1="665.77" x2="590.18" y2="661.51" style="animation-delay:1.28s;" />
<line class="line" x1="639.47" y1="665.77" x2="716.96" y2="770.35" style="animation-delay:1.40s;" />
<line class="line" x1="639.47" y1="665.77" x2="609.88" y2="547.83" style="animation-delay:1.23s;" />
<line class="line" x1="639.47" y1="665.77" x2="594.09" y2="640.10" style="animation-delay:1.27s;" />
<line class="line" x1="639.47" y1="665.77" x2="564.41" y2="810.99" style="animation-delay:1.34s;" />
<line class="line" x1="1231.02" y1="303.48" x2="1261.73" y2="121.39" style="animation-delay:1.46s;" />
<line class="line" x1="1231.02" y1="303.48" x2="1261.67" y2="401.17" style="animation-delay:1.60s;" />
<line class="line" x1="1231.02" y1="303.48" x2="1309.13" y2="266.08" style="animation-delay:1.55s;" />
<line class="line" x1="1231.02" y1="303.48" x2="1373.52" y2="429.48" style="animation-delay:1.67s;" />
<line class="line" x1="1231.02" y1="303.48" x2="1219.77" y2="216.43" style="animation-delay:1.49s;" />
<line class="line" x1="1231.02" y1="303.48" x2="1096.74" y2="324.46" style="animation-delay:1.48s;" />
<line class="line" x1="1231.02" y1="303.48" x2="1154.93" y2="449.22" style="animation-delay:1.57s;" />
<line class="line" x1="1231.02" y1="303.48" x2="1108.44" y2="404.30" style="animation-delay:1.52s;" />
<line class="line" x1="1231.02" y1="303.48" x2="1155.72" y2="454.93" style="animation-delay:1.57s;" />
<line class="line" x1="1231.02" y1="303.48" x2="1252.09" y2="447.44" style="animation-delay:1.62s;" />
<line class="line" x1="1231.02" y1="303.48" x2="1139.17" y2="143.38" style="animation-delay:1.41s;" />
<line class="line" x1="105.68" y1="26.44" x2="23.73" y2="82.80" style="animation-delay:0.12s;" />
<line class="line" x1="701.77" y1="356.87" x2="702.32" y2="221.51" style="animation-delay:0.99s;" />
<line class="line" x1="701.77" y1="356.87" x2="859.50" y2="468.08" style="animation-delay:1.19s;" />
<line class="line" x1="701.77" y1="356.87" x2="508.99" y2="315.32" style="animation-delay:0.94s;" />
<line class="line" x1="701.77" y1="356.87" x2="808.78" y2="300.76" style="animation-delay:1.08s;" />
<line class="line" x1="701.77" y1="356.87" x2="558.72" y2="377.89" style="animation-delay:1.00s;" />
<line class="line" x1="701.77" y1="356.87" x2="751.30" y2="190.71" style="animation-delay:1.00s;" />
<line class="line" x1="701.77" y1="356.87" x2="888.72" y2="287.44" style="animation-delay:1.12s;" />
<line class="line" x1="701.77" y1="356.87" x2="803.37" y2="261.30" style="animation-delay:1.06s;" />
<line class="line" x1="1396.10" y1="746.99" x2="1398.70" y2="879.86" style="animation-delay:2.21s;" />
<line class="line" x1="1396.10" y1="746.99" x2="1302.52" y2="655.57" style="animation-delay:2.05s;" />
<line class="line" x1="1396.10" y1="746.99" x2="1350.60" y2="740.62" style="animation-delay:2.12s;" />
<line class="line" x1="1396.10" y1="746.99" x2="1389.07" y2="548.41" style="animation-delay:2.04s;" />
<line class="line" x1="702.32" y1="221.51" x2="530.47" y2="225.19" style="animation-delay:0.84s;" />
<line class="line" x1="702.32" y1="221.51" x2="808.78" y2="300.76" style="animation-delay:1.02s;" />
<line class="line" x1="702.32" y1="221.51" x2="751.30" y2="190.71" style="animation-delay:0.93s;" />
<line class="line" x1="702.32" y1="221.51" x2="888.72" y2="287.44" style="animation-delay:1.05s;" />
<line class="line" x1="702.32" y1="221.51" x2="803.37" y2="261.30" style="animation-delay:0.99s;" />
<line class="line" x1="702.32" y1="221.51" x2="726.95" y2="128.01" style="animation-delay:0.89s;" />
<line class="line" x1="702.32" y1="221.51" x2="718.90" y2="46.07" style="animation-delay:0.84s;" />
<line class="line" x1="702.32" y1="221.51" x2="899.67" y2="250.63" style="animation-delay:1.04s;" />
<line class="line" x1="702.32" y1="221.51" x2="523.34" y2="172.01" style="animation-delay:0.81s;" />
<line class="line" x1="1261.73" y1="121.39" x2="1309.13" y2="266.08" style="animation-delay:1.48s;" />
<line class="line" x1="1261.73" y1="121.39" x2="1219.77" y2="216.43" style="animation-delay:1.41s;" />
<line class="line" x1="1261.73" y1="121.39" x2="1318.29" y2="89.57" style="animation-delay:1.40s;" />
<line class="line" x1="1261.73" y1="121.39" x2="1139.17" y2="143.38" style="animation-delay:1.33s;" />
<line class="line" x1="1161.39" y1="702.97" x2="1302.52" y2="655.57" style="animation-delay:1.91s;" />
<line class="line" x1="1161.39" y1="702.97" x2="1174.93" y2="676.85" style="animation-delay:1.86s;" />
<line class="line" x1="1161.39" y1="702.97" x2="1350.60" y2="740.62" style="animation-delay:1.98s;" />
<line class="line" x1="1161.39" y1="702.97" x2="1180.10" y2="615.95" style="animation-delay:1.83s;" />
<line class="line" x1="1161.39" y1="702.97" x2="1067.35" y2="712.72" style="animation-delay:1.82s;" />
<line class="line" x1="1161.39" y1="702.97" x2="1034.78" y2="643.43" style="animation-delay:1.77s;" />
<line class="line" x1="1161.39" y1="702.97" x2="1045.54" y2="632.99" style="animation-delay:1.77s;" />
<line class="line" x1="1161.39" y1="702.97" x2="1135.51" y2="794.44" style="animation-delay:1.90s;" />
<line class="line" x1="158.01" y1="869.87" x2="328.62" y2="771.26" style="animation-delay:1.06s;" />
<line class="line" x1="158.01" y1="869.87" x2="52.25" y2="881.87" style="animation-delay:0.98s;" />
<line class="line" x1="158.01" y1="869.87" x2="271.31" y2="713.46" style="animation-delay:1.01s;" />
<line class="line" x1="346.73" y1="525.17" x2="363.83" y2="427.90" style="animation-delay:0.83s;" />
<line class="line" x1="346.73" y1="525.17" x2="326.96" y2="684.06" style="animation-delay:0.94s;" />
<line class="line" x1="346.73" y1="525.17" x2="272.01" y2="399.16" style="animation-delay:0.77s;" />
<line class="line" x1="346.73" y1="525.17" x2="305.85" y2="411.67" style="animation-delay:0.79s;" />
<line class="line" x1="346.73" y1="525.17" x2="385.48" y2="361.69" style="animation-delay:0.81s;" />
<line class="line" x1="723.48" y1="20.06" x2="751.30" y2="190.71" style="animation-delay:0.84s;" />
<line class="line" x1="723.48" y1="20.06" x2="543.99" y2="33.54" style="animation-delay:0.66s;" />
<line class="line" x1="723.48" y1="20.06" x2="726.95" y2="128.01" style="animation-delay:0.80s;" />
<line class="line" x1="723.48" y1="20.06" x2="718.90" y2="46.07" style="animation-delay:0.75s;" />
<line class="line" x1="530.47" y1="225.19" x2="508.99" y2="315.32" style="animation-delay:0.79s;" />
<line class="line" x1="530.47" y1="225.19" x2="439.26" y2="94.43" style="animation-delay:0.64s;" />
<line class="line" x1="530.47" y1="225.19" x2="558.72" y2="377.89" style="animation-delay:0.85s;" />
<line class="line" x1="530.47" y1="225.19" x2="543.99" y2="33.54" style="animation-delay:0.67s;" />
<line class="line" x1="530.47" y1="225.19" x2="514.84" y2="51.47" style="animation-delay:0.66s;" />
<line class="line" x1="530.47" y1="225.19" x2="385.48" y2="361.69" style="animation-delay:0.75s;" />
<line class="line" x1="530.47" y1="225.19" x2="467.12" y2="171.90" style="animation-delay:0.70s;" />
<line class="line" x1="530.47" y1="225.19" x2="480.27" y2="266.82" style="animation-delay:0.75s;" />
<line class="line" x1="530.47" y1="225.19" x2="523.34" y2="172.01" style="animation-delay:0.73s;" />
<line class="line" x1="305.18" y1="156.13" x2="439.26" y2="94.43" style="animation-delay:0.50s;" />
<line class="line" x1="305.18" y1="156.13" x2="467.12" y2="171.90" style="animation-delay:0.55s;" />
<line class="line" x1="328.62" y1="771.26" x2="326.96" y2="684.06" style="animation-delay:1.06s;" />
<line class="line" x1="328.62" y1="771.26" x2="364.55" y2="832.66" style="animation-delay:1.15s;" />
<line class="line" x1="328.62" y1="771.26" x2="271.31" y2="713.46" style="animation-delay:1.04s;" />
<line class="line" x1="1387.75" y1="440.50" x2="1261.67" y2="401.17" style="animation-delay:1.75s;" />
<line class="line" x1="1387.75" y1="440.50" x2="1309.13" y2="266.08" style="animation-delay:1.70s;" />
<line class="line" x1="1387.75" y1="440.50" x2="1373.52" y2="429.48" style="animation-delay:1.82s;" />
<line class="line" x1="1387.75" y1="440.50" x2="1389.07" y2="548.41" style="animation-delay:1.88s;" />
<line class="line" x1="1387.75" y1="440.50" x2="1383.90" y2="436.15" style="animation-delay:1.82s;" />
<line class="line" x1="1387.75" y1="440.50" x2="1252.09" y2="447.44" style="animation-delay:1.76s;" />
<line class="line" x1="1261.67" y1="401.17" x2="1309.13" y2="266.08" style="animation-delay:1.62s;" />
<line class="line" x1="1261.67" y1="401.17" x2="1373.52" y2="429.48" style="animation-delay:1.73s;" />
<line class="line" x1="1261.67" y1="401.17" x2="1219.77" y2="216.43" style="animation-delay:1.55s;" />
<line class="line" x1="1261.67" y1="401.17" x2="1096.74" y2="324.46" style="animation-delay:1.54s;" />
<line class="line" x1="1261.67" y1="401.17" x2="1389.07" y2="548.41" style="animation-delay:1.80s;" />
<line class="line" x1="1261.67" y1="401.17" x2="1154.93" y2="449.22" style="animation-delay:1.63s;" />
<line class="line" x1="1261.67" y1="401.17" x2="1108.44" y2="404.30" style="animation-delay:1.59s;" />
<line class="line" x1="1261.67" y1="401.17" x2="1155.72" y2="454.93" style="animation-delay:1.64s;" />
<line class="line" x1="1261.67" y1="401.17" x2="1383.90" y2="436.15" style="animation-delay:1.74s;" />
<line class="line" x1="1261.67" y1="401.17" x2="1252.09" y2="447.44" style="animation-delay:1.68s;" />
<line class="line" x1="1398.70" y1="879.86" x2="1350.60" y2="740.62" style="animation-delay:2.18s;" />
<line class="line" x1="859.50" y1="468.08" x2="808.78" y2="300.76" style="animation-delay:1.22s;" />
<line class="line" x1="859.50" y1="468.08" x2="848.08" y2="569.51" style="animation-delay:1.37s;" />
<line class="line" x1="859.50" y1="468.08" x2="888.72" y2="287.44" style="animation-delay:1.25s;" />
<line class="line" x1="859.50" y1="468.08" x2="947.59" y2="451.52" style="animation-delay:1.36s;" />
<line class="line" x1="508.99" y1="315.32" x2="363.83" y2="427.90" style="animation-delay:0.81s;" />
<line class="line" x1="508.99" y1="315.32" x2="558.72" y2="377.89" style="animation-delay:0.88s;" />
<line class="line" x1="508.99" y1="315.32" x2="385.48" y2="361.69" style="animation-delay:0.79s;" />
<line class="line" x1="508.99" y1="315.32" x2="467.12" y2="171.90" style="animation-delay:0.73s;" />
<line class="line" x1="508.99" y1="315.32" x2="480.27" y2="266.82" style="animation-delay:0.79s;" />
<line class="line" x1="508.99" y1="315.32" x2="523.34" y2="172.01" style="animation-delay:0.76s;" />
<line class="line" x1="590.18" y1="661.51" x2="716.96" y2="770.35" style="animation-delay:1.37s;" />
<line class="line" x1="590.18" y1="661.51" x2="609.88" y2="547.83" style="animation-delay:1.20s;" />
<line class="line" x1="590.18" y1="661.51" x2="594.09" y2="640.10" style="animation-delay:1.24s;" />
<line class="line" x1="590.18" y1="661.51" x2="564.41" y2="810.99" style="animation-delay:1.31s;" />
<line class="line" x1="439.26" y1="94.43" x2="543.99" y2="33.54" style="animation-delay:0.56s;" />
<line class="line" x1="439.26" y1="94.43" x2="514.84" y2="51.47" style="animation-delay:0.55s;" />
<line class="line" x1="439.26" y1="94.43" x2="467.12" y2="171.90" style="animation-delay:0.59s;" />
<line class="line" x1="439.26" y1="94.43" x2="480.27" y2="266.82" style="animation-delay:0.64s;" />
<line class="line" x1="439.26" y1="94.43" x2="523.34" y2="172.01" style="animation-delay:0.61s;" />
<line class="line" x1="363.83" y1="427.90" x2="272.01" y2="399.16" style="animation-delay:0.73s;" />
<line class="line" x1="363.83" y1="427.90" x2="305.85" y2="411.67" style="animation-delay:0.75s;" />
<line class="line" x1="363.83" y1="427.90" x2="385.48" y2="361.69" style="animation-delay:0.77s;" />
<line class="line" x1="363.83" y1="427.90" x2="480.27" y2="266.82" style="animation-delay:0.77s;" />
<line class="line" x1="326.96" y1="684.06" x2="364.55" y2="832.66" style="animation-delay:1.10s;" />
<line class="line" x1="326.96" y1="684.06" x2="271.31" y2="713.46" style="animation-delay:1.00s;" />
<line class="line" x1="138.62" y1="439.00" x2="160.00" y2="418.77" style="animation-delay:0.58s;" />
<line class="line" x1="138.62" y1="439.00" x2="272.01" y2="399.16" style="animation-delay:0.62s;" />
<line class="line" x1="138.62" y1="439.00" x2="305.85" y2="411.67" style="animation-delay:0.65s;" />
<line class="line" x1="138.62" y1="439.00" x2="90.64" y2="591.20" style="animation-delay:0.63s;" />
<line class="line" x1="808.78" y1="300.76" x2="751.30" y2="190.71" style="animation-delay:1.03s;" />
<line class="line" x1="808.78" y1="300.76" x2="888.72" y2="287.44" style="animation-delay:1.14s;" />
<line class="line" x1="808.78" y1="300.76" x2="803.37" y2="261.30" style="animation-delay:1.09s;" />
<line class="line" x1="808.78" y1="300.76" x2="726.95" y2="128.01" style="animation-delay:0.98s;" />
<line class="line" x1="808.78" y1="300.76" x2="899.67" y2="250.63" style="animation-delay:1.13s;" />
<line class="line" x1="160.00" y1="418.77" x2="272.01" y2="399.16" style="animation-delay:0.62s;" />
<line class="line" x1="160.00" y1="418.77" x2="305.85" y2="411.67" style="animation-delay:0.65s;" />
<line class="line" x1="160.00" y1="418.77" x2="90.64" y2="591.20" style="animation-delay:0.63s;" />
<line class="line" x1="160.00" y1="418.77" x2="112.54" y2="226.58" style="animation-delay:0.46s;" />
<line class="line" x1="558.72" y1="377.89" x2="609.88" y2="547.83" style="animation-delay:1.05s;" />
<line class="line" x1="558.72" y1="377.89" x2="385.48" y2="361.69" style="animation-delay:0.84s;" />
<line class="line" x1="558.72" y1="377.89" x2="480.27" y2="266.82" style="animation-delay:0.84s;" />
<line class="line" x1="751.30" y1="190.71" x2="888.72" y2="287.44" style="animation-delay:1.06s;" />
<line class="line" x1="751.30" y1="190.71" x2="803.37" y2="261.30" style="animation-delay:1.00s;" />
<line class="line" x1="751.30" y1="190.71" x2="726.95" y2="128.01" style="animation-delay:0.90s;" />
<line class="line" x1="751.30" y1="190.71" x2="718.90" y2="46.07" style="animation-delay:0.85s;" />
<line class="line" x1="751.30" y1="190.71" x2="899.67" y2="250.63" style="animation-delay:1.05s;" />
<line class="line" x1="1309.13" y1="266.08" x2="1373.52" y2="429.48" style="animation-delay:1.69s;" />
<line class="line" x1="1309.13" y1="266.08" x2="1219.77" y2="216.43" style="animation-delay:1.51s;" />
<line class="line" x1="1309.13" y1="266.08" x2="1318.29" y2="89.57" style="animation-delay:1.49s;" />
<line class="line" x1="1309.13" y1="266.08" x2="1383.90" y2="436.15" style="animation-delay:1.70s;" />
<line class="line" x1="1309.13" y1="266.08" x2="1252.09" y2="447.44" style="animation-delay:1.64s;" />
<line class="line" x1="1373.52" y1="429.48" x2="1389.07" y2="548.41" style="animation-delay:1.87s;" />
<line class="line" x1="1373.52" y1="429.48" x2="1383.90" y2="436.15" style="animation-delay:1.81s;" />
<line class="line" x1="1373.52" y1="429.48" x2="1252.09" y2="447.44" style="animation-delay:1.75s;" />
<line class="line" x1="716.96" y1="770.35" x2="866.11" y2="813.82" style="animation-delay:1.58s;" />
<line class="line" x1="716.96" y1="770.35" x2="594.09" y2="640.10" style="animation-delay:1.36s;" />
<line class="line" x1="716.96" y1="770.35" x2="564.41" y2="810.99" style="animation-delay:1.43s;" />
<line class="line" x1="1302.52" y1="655.57" x2="1174.93" y2="676.85" style="animation-delay:1.90s;" />
<line class="line" x1="1302.52" y1="655.57" x2="1350.60" y2="740.62" style="animation-delay:2.02s;" />
<line class="line" x1="1302.52" y1="655.57" x2="1180.10" y2="615.95" style="animation-delay:1.88s;" />
<line class="line" x1="1302.52" y1="655.57" x2="1389.07" y2="548.41" style="animation-delay:1.95s;" />
<line class="line" x1="866.11" y1="813.82" x2="949.36" y2="736.52" style="animation-delay:1.68s;" />
<line class="line" x1="949.36" y1="736.52" x2="848.08" y2="569.51" style="animation-delay:1.55s;" />
<line class="line" x1="949.36" y1="736.52" x2="1067.35" y2="712.72" style="animation-delay:1.73s;" />
<line class="line" x1="949.36" y1="736.52" x2="1034.78" y2="643.43" style="animation-delay:1.68s;" />
<line class="line" x1="949.36" y1="736.52" x2="1045.54" y2="632.99" style="animation-delay:1.68s;" />
<line class="line" x1="949.36" y1="736.52" x2="1135.51" y2="794.44" style="animation-delay:1.81s;" />
<line class="line" x1="1060.95" y1="5.61" x2="968.34" y2="150.01" style="animation-delay:1.09s;" />
<line class="line" x1="1060.95" y1="5.61" x2="1139.17" y2="143.38" style="animation-delay:1.17s;" />
<line class="line" x1="272.01" y1="399.16" x2="305.85" y2="411.67" style="animation-delay:0.69s;" />
<line class="line" x1="272.01" y1="399.16" x2="385.48" y2="361.69" style="animation-delay:0.71s;" />
<line class="line" x1="848.08" y1="569.51" x2="947.59" y2="451.52" style="animation-delay:1.41s;" />
<line class="line" x1="305.85" y1="411.67" x2="385.48" y2="361.69" style="animation-delay:0.73s;" />
<line class="line" x1="888.72" y1="287.44" x2="803.37" y2="261.30" style="animation-delay:1.12s;" />
<line class="line" x1="888.72" y1="287.44" x2="947.59" y2="451.52" style="animation-delay:1.29s;" />
<line class="line" x1="888.72" y1="287.44" x2="968.34" y2="150.01" style="animation-delay:1.15s;" />
<line class="line" x1="888.72" y1="287.44" x2="899.67" y2="250.63" style="animation-delay:1.16s;" />
<line class="line" x1="1219.77" y1="216.43" x2="1318.29" y2="89.57" style="animation-delay:1.42s;" />
<line class="line" x1="1219.77" y1="216.43" x2="1096.74" y2="324.46" style="animation-delay:1.43s;" />
<line class="line" x1="1219.77" y1="216.43" x2="1139.17" y2="143.38" style="animation-delay:1.36s;" />
<line class="line" x1="803.37" y1="261.30" x2="726.95" y2="128.01" style="animation-delay:0.96s;" />
<line class="line" x1="803.37" y1="261.30" x2="968.34" y2="150.01" style="animation-delay:1.09s;" />
<line class="line" x1="803.37" y1="261.30" x2="899.67" y2="250.63" style="animation-delay:1.11s;" />
<line class="line" x1="609.88" y1="547.83" x2="594.09" y2="640.10" style="animation-delay:1.20s;" />
<line class="line" x1="543.99" y1="33.54" x2="514.84" y2="51.47" style="animation-delay:0.57s;" />
<line class="line" x1="543.99" y1="33.54" x2="467.12" y2="171.90" style="animation-delay:0.61s;" />
<line class="line" x1="543.99" y1="33.54" x2="718.90" y2="46.07" style="animation-delay:0.67s;" />
<line class="line" x1="543.99" y1="33.54" x2="523.34" y2="172.01" style="animation-delay:0.64s;" />
<line class="line" x1="1318.29" y1="89.57" x2="1139.17" y2="143.38" style="animation-delay:1.35s;" />
<line class="line" x1="1174.93" y1="676.85" x2="1350.60" y2="740.62" style="animation-delay:1.97s;" />
<line class="line" x1="1174.93" y1="676.85" x2="1180.10" y2="615.95" style="animation-delay:1.82s;" />
<line class="line" x1="1174.93" y1="676.85" x2="1067.35" y2="712.72" style="animation-delay:1.82s;" />
<line class="line" x1="1174.93" y1="676.85" x2="1034.78" y2="643.43" style="animation-delay:1.76s;" />
<line class="line" x1="1174.93" y1="676.85" x2="1045.54" y2="632.99" style="animation-delay:1.77s;" />
<line class="line" x1="1174.93" y1="676.85" x2="1135.51" y2="794.44" style="animation-delay:1.89s;" />
<line class="line" x1="1350.60" y1="740.62" x2="1389.07" y2="548.41" style="animation-delay:2.01s;" />
<line class="line" x1="1096.74" y1="324.46" x2="1154.93" y2="449.22" style="animation-delay:1.51s;" />
<line class="line" x1="1096.74" y1="324.46" x2="947.59" y2="451.52" style="animation-delay:1.41s;" />
<line class="line" x1="1096.74" y1="324.46" x2="1108.44" y2="404.30" style="animation-delay:1.47s;" />
<line class="line" x1="1096.74" y1="324.46" x2="1155.72" y2="454.93" style="animation-delay:1.52s;" />
<line class="line" x1="1096.74" y1="324.46" x2="1252.09" y2="447.44" style="animation-delay:1.56s;" />
<line class="line" x1="1096.74" y1="324.46" x2="1139.17" y2="143.38" style="animation-delay:1.35s;" />
<line class="line" x1="594.09" y1="640.10" x2="564.41" y2="810.99" style="animation-delay:1.30s;" />
<line class="line" x1="564.41" y1="810.99" x2="504.69" y2="894.68" style="animation-delay:1.39s;" />
<line class="line" x1="1180.10" y1="615.95" x2="1067.35" y2="712.72" style="animation-delay:1.79s;" />
<line class="line" x1="1180.10" y1="615.95" x2="1154.93" y2="449.22" style="animation-delay:1.70s;" />
<line class="line" x1="1180.10" y1="615.95" x2="1034.78" y2="643.43" style="animation-delay:1.74s;" />
<line class="line" x1="1180.10" y1="615.95" x2="1155.72" y2="454.93" style="animation-delay:1.70s;" />
<line class="line" x1="1180.10" y1="615.95" x2="1045.54" y2="632.99" style="animation-delay:1.74s;" />
<line class="line" x1="1180.10" y1="615.95" x2="1252.09" y2="447.44" style="animation-delay:1.75s;" />
<line class="line" x1="1180.10" y1="615.95" x2="1135.51" y2="794.44" style="animation-delay:1.86s;" />
<line class="line" x1="1389.07" y1="548.41" x2="1383.90" y2="436.15" style="animation-delay:1.88s;" />
<line class="line" x1="1389.07" y1="548.41" x2="1252.09" y2="447.44" style="animation-delay:1.82s;" />
<line class="line" x1="504.69" y1="894.68" x2="364.55" y2="832.66" style="animation-delay:1.30s;" />
<line class="line" x1="1067.35" y1="712.72" x2="1034.78" y2="643.43" style="animation-delay:1.73s;" />
<line class="line" x1="1067.35" y1="712.72" x2="1045.54" y2="632.99" style="animation-delay:1.73s;" />
<line class="line" x1="1067.35" y1="712.72" x2="1135.51" y2="794.44" style="animation-delay:1.86s;" />
<line class="line" x1="726.95" y1="128.01" x2="718.90" y2="46.07" style="animation-delay:0.81s;" />
<line class="line" x1="1154.93" y1="449.22" x2="1108.44" y2="404.30" style="animation-delay:1.56s;" />
<line class="line" x1="1154.93" y1="449.22" x2="1155.72" y2="454.93" style="animation-delay:1.61s;" />
<line class="line" x1="1154.93" y1="449.22" x2="1252.09" y2="447.44" style="animation-delay:1.65s;" />
<line class="line" x1="947.59" y1="451.52" x2="1108.44" y2="404.30" style="animation-delay:1.46s;" />
<line class="line" x1="968.34" y1="150.01" x2="899.67" y2="250.63" style="animation-delay:1.13s;" />
<line class="line" x1="968.34" y1="150.01" x2="1139.17" y2="143.38" style="animation-delay:1.20s;" />
<line class="line" x1="514.84" y1="51.47" x2="467.12" y2="171.90" style="animation-delay:0.60s;" />
<line class="line" x1="514.84" y1="51.47" x2="523.34" y2="172.01" style="animation-delay:0.63s;" />
<line class="line" x1="112.54" y1="226.58" x2="23.73" y2="82.80" style="animation-delay:0.22s;" />
<line class="line" x1="385.48" y1="361.69" x2="480.27" y2="266.82" style="animation-delay:0.75s;" />
<line class="line" x1="1108.44" y1="404.30" x2="1155.72" y2="454.93" style="animation-delay:1.56s;" />
<line class="line" x1="1108.44" y1="404.30" x2="1252.09" y2="447.44" style="animation-delay:1.61s;" />
<line class="line" x1="1034.78" y1="643.43" x2="1045.54" y2="632.99" style="animation-delay:1.68s;" />
<line class="line" x1="1034.78" y1="643.43" x2="1135.51" y2="794.44" style="animation-delay:1.80s;" />
<line class="line" x1="1155.72" y1="454.93" x2="1252.09" y2="447.44" style="animation-delay:1.66s;" />
<line class="line" x1="467.12" y1="171.90" x2="480.27" y2="266.82" style="animation-delay:0.69s;" />
<line class="line" x1="467.12" y1="171.90" x2="523.34" y2="172.01" style="animation-delay:0.67s;" />
<line class="line" x1="364.55" y1="832.66" x2="271.31" y2="713.46" style="animation-delay:1.09s;" />
<line class="line" x1="1383.90" y1="436.15" x2="1252.09" y2="447.44" style="animation-delay:1.76s;" />
<line class="line" x1="480.27" y1="266.82" x2="523.34" y2="172.01" style="animation-delay:0.72s;" />
<line class="line" x1="1045.54" y1="632.99" x2="1135.51" y2="794.44" style="animation-delay:1.80s;" />
  </g>
</svg>