<svg width="135" height="88" viewBox="0 0 135 88" fill="none" xmlns="http://www.w3.org/2000/svg">
<g clip-path="url(#clip0_451_1295)">
<path d="M2.73617 40.8682L52.0945 54.093L23.6062 61.7247L2.73617 40.8682ZM2.73617 39.4062L39.4062 2.73617L52.8322 52.8188L2.73617 39.4062ZM40.8682 2.73617L61.7247 23.5927L54.093 52.0945L40.8682 2.73617ZM9.63024 9.64365L38.132 1.99848L1.99848 38.132L9.63024 9.64365ZM40.1305 0L8.47676 8.47676L0 40.1305L23.177 63.3074L54.8307 54.8307L63.3074 23.177L40.1305 0Z" fill="#FF005C"/>
<path d="M61.5232 61.3896H63.9643C66.7138 61.3896 68.3636 62.9321 68.3636 66.0036C68.3636 69.0751 66.7138 70.7114 64.0447 70.7114H61.5098V61.3896H61.5232ZM63.857 69.3701C65.6408 69.3701 66.6602 68.3105 66.6602 66.017C66.6602 63.7234 65.6408 62.7443 63.857 62.7443H63.1729V69.3836H63.857V69.3701Z" fill="#211D28"/>
<path d="M73.0059 61.3896H78.9879V62.7846H74.6556V65.1586H78.3172V66.5535H74.6556V69.3165H79.122V70.7114H73.0059V61.3896Z" fill="#211D28"/>
<path d="M84.4199 61.3896H90.3885V62.7846H86.0697V65.1586H89.7313V66.5535H86.0697V69.3165H90.5361V70.7114H84.4199V61.3896Z" fill="#211D28"/>
<path d="M95.9004 61.376H98.9719C101.011 61.376 102.526 62.0868 102.526 64.2463C102.526 66.4057 100.984 67.2775 98.9719 67.2775H97.5635V70.6977H95.9004V61.376ZM98.8378 65.9497C100.219 65.9497 100.89 65.3863 100.89 64.2463C100.89 63.1062 100.192 62.7038 98.8378 62.7038H97.5635V65.9497H98.8378Z" fill="#211D28"/>
<path d="M106.953 61.3896H112.935V62.7846H108.616V65.1586H112.265V66.5535H108.616V69.3165H113.069V70.7114H106.953V61.3896Z" fill="#211D28"/>
<path d="M117.803 61.3896H120.928C122.859 61.3896 124.361 62.0737 124.361 64.1661C124.361 66.2584 122.859 67.0766 120.928 67.0766H119.479V70.7248H117.816V61.4031L117.803 61.3896ZM120.753 65.7487C122.028 65.7487 122.725 65.2122 122.725 64.1661C122.725 63.1199 122.028 62.7175 120.753 62.7175H119.479V65.7487H120.753ZM121.813 65.6414L124.724 70.7248H122.859L120.606 66.634L121.813 65.6414Z" fill="#211D28"/>
<path d="M60.9336 86.6315L61.8993 85.4914C62.6102 86.1218 63.5222 86.551 64.5013 86.551C65.5878 86.551 66.1645 86.0682 66.1645 85.4244C66.1645 84.5928 65.5207 84.3782 64.6221 83.9892L63.3344 83.4259C62.3553 83.0503 61.3494 82.3261 61.3494 80.958C61.3494 79.4692 62.6906 78.3291 64.5952 78.3291C65.7353 78.3291 66.8217 78.7717 67.5862 79.5228L66.7412 80.569C66.1108 80.0593 65.467 79.7777 64.5282 79.7777C63.6429 79.7777 63.0528 80.18 63.0528 80.8641C63.0528 81.5884 63.7905 81.8566 64.6489 82.1785L65.8694 82.715C67.0631 83.171 67.8947 83.8819 67.8947 85.2232C67.8947 86.7388 66.6205 87.9996 64.4343 87.9996C63.1198 87.9996 61.8859 87.5033 60.9604 86.6315" fill="#211D28"/>
<path d="M73.0176 86.4308H75.2709V79.8988H73.0176V78.5039H79.174V79.8988H76.9206V86.4308H79.174V87.8257H73.0176V86.4308Z" fill="#211D28"/>
<path d="M83.9626 83.1845C83.9626 80.113 85.7733 78.3291 88.1876 78.3291C89.435 78.3291 90.28 78.9058 90.8433 79.496L89.9178 80.5288C89.502 80.0996 89.0058 79.7777 88.1876 79.7777C86.6988 79.7777 85.6794 81.0519 85.6794 83.1442C85.6794 85.2366 86.5781 86.5644 88.2144 86.5644C88.7107 86.5644 89.1935 86.4169 89.4618 86.162V84.1502H87.8657V82.7955H90.964V86.9132C90.3604 87.5033 89.3143 88.013 88.1071 88.013C85.7465 88.013 83.9492 86.2962 83.9492 83.2113" fill="#211D28"/>
<path d="M95.9004 78.5039H97.644L100.112 83.7482L100.957 85.7467H100.997C100.93 84.7944 100.769 83.6141 100.769 82.5679V78.5173H102.352V87.8391H100.608L98.1403 82.5947L97.2953 80.6097H97.2551C97.3221 81.6022 97.4831 82.7289 97.4831 83.7616V87.8391H95.9004V78.5173V78.5039Z" fill="#211D28"/>
<path d="M109.072 78.5039H111.03L114.048 87.8257H112.278L110.87 82.863C110.588 81.8839 110.293 80.8243 110.038 79.7915H109.984C109.716 80.8243 109.448 81.8839 109.166 82.863L107.744 87.8257H106.041L109.059 78.5039H109.072ZM107.852 84.0031H112.224V85.3175H107.852V84.0031Z" fill="#211D28"/>
<path d="M117.803 78.5039H119.452V86.4308H123.825V87.8257H117.803V78.5039Z" fill="#211D28"/>
<path d="M127.5 86.6315L128.466 85.4914C129.177 86.1218 130.089 86.551 131.068 86.551C132.154 86.551 132.731 86.0682 132.731 85.4244C132.731 84.5928 132.087 84.3782 131.188 83.9892L129.901 83.4259C128.922 83.0503 127.916 82.3261 127.916 80.958C127.916 79.4692 129.257 78.3291 131.162 78.3291C132.302 78.3291 133.388 78.7717 134.153 79.5228L133.308 80.569C132.677 80.0593 132.033 79.7777 131.095 79.7777C130.209 79.7777 129.619 80.18 129.619 80.8641C129.619 81.5884 130.357 81.8566 131.215 82.1785L132.436 82.715C133.63 83.171 134.461 83.8819 134.461 85.2232C134.461 86.7388 133.187 87.9996 131.001 87.9996C129.686 87.9996 128.452 87.5033 127.527 86.6315" fill="#211D28"/>
</g>
<defs>
<clipPath id="clip0_451_1295">
<rect width="134.421" height="88" fill="white"/>
</clipPath>
</defs>
</svg>
